<?xml version="1.0" encoding="utf-8" standalone="no"?>
<!DOCTYPE svg PUBLIC "-//W3C//DTD SVG 1.1//EN"
  "http://www.w3.org/Graphics/SVG/1.1/DTD/svg11.dtd">
<svg xmlns:xlink="http://www.w3.org/1999/xlink" width="432pt" height="288pt" viewBox="0 0 432 288" xmlns="http://www.w3.org/2000/svg" version="1.1">
 <metadata>
  <rdf:RDF xmlns:dc="http://purl.org/dc/elements/1.1/" xmlns:cc="http://creativecommons.org/ns#" xmlns:rdf="http://www.w3.org/1999/02/22-rdf-syntax-ns#">
   <cc:Work>
    <dc:type rdf:resource="http://purl.org/dc/dcmitype/StillImage"/>
    <dc:date>2022-02-08T10:00:19.661775</dc:date>
    <dc:format>image/svg+xml</dc:format>
    <dc:creator>
     <cc:Agent>
      <dc:title>Matplotlib v3.5.0, https://matplotlib.org/</dc:title>
     </cc:Agent>
    </dc:creator>
   </cc:Work>
  </rdf:RDF>
 </metadata>
 <defs>
  <style type="text/css">*{stroke-linejoin: round; stroke-linecap: butt}</style>
 </defs>
 <g id="figure_1">
  <g id="patch_1">
   <path d="M 0 288 
L 432 288 
L 432 0 
L 0 0 
L 0 288 
z
" style="fill: none"/>
  </g>
  <g id="axes_1">
   <g id="patch_2">
    <path d="M 54 252 
L 388.8 252 
L 388.8 34.56 
L 54 34.56 
z
" style="fill: #ffffff"/>
   </g>
   <g id="PathCollection_1">
    <defs>
     <path id="m4ba0728e4f" d="M 0 3 
C 0.795609 3 1.55874 2.683901 2.12132 2.12132 
C 2.683901 1.55874 3 0.795609 3 0 
C 3 -0.795609 2.683901 -1.55874 2.12132 -2.12132 
C 1.55874 -2.683901 0.795609 -3 0 -3 
C -0.795609 -3 -1.55874 -2.683901 -2.12132 -2.12132 
C -2.683901 -1.55874 -3 -0.795609 -3 0 
C -3 0.795609 -2.683901 1.55874 -2.12132 2.12132 
C -1.55874 2.683901 -0.795609 3 0 3 
z
" style="stroke: #1f77b4"/>
    </defs>
    <g clip-path="url(#p95a55f473b)">
     <use xlink:href="#m4ba0728e4f" x="164.233546" y="230.256" style="fill: #1f77b4; stroke: #1f77b4"/>
     <use xlink:href="#m4ba0728e4f" x="321.918618" y="226.302545" style="fill: #1f77b4; stroke: #1f77b4"/>
     <use xlink:href="#m4ba0728e4f" x="247.119289" y="85.954909" style="fill: #1f77b4; stroke: #1f77b4"/>
     <use xlink:href="#m4ba0728e4f" x="237.741295" y="165.024" style="fill: #1f77b4; stroke: #1f77b4"/>
     <use xlink:href="#m4ba0728e4f" x="136.717276" y="70.141091" style="fill: #1f77b4; stroke: #1f77b4"/>
     <use xlink:href="#m4ba0728e4f" x="284.406642" y="44.443636" style="fill: #1f77b4; stroke: #1f77b4"/>
     <use xlink:href="#m4ba0728e4f" x="367.517008" y="48.397091" style="fill: #1f77b4; stroke: #1f77b4"/>
     <use xlink:href="#m4ba0728e4f" x="78.483864" y="93.861818" style="fill: #1f77b4; stroke: #1f77b4"/>
     <use xlink:href="#m4ba0728e4f" x="69.218182" y="93.861818" style="fill: #1f77b4; stroke: #1f77b4"/>
     <use xlink:href="#m4ba0728e4f" x="187.987387" y="232.232727" style="fill: #1f77b4; stroke: #1f77b4"/>
     <use xlink:href="#m4ba0728e4f" x="183.045689" y="222.349091" style="fill: #1f77b4; stroke: #1f77b4"/>
     <use xlink:href="#m4ba0728e4f" x="257.901174" y="93.861818" style="fill: #1f77b4; stroke: #1f77b4"/>
     <use xlink:href="#m4ba0728e4f" x="183.663402" y="236.186182" style="fill: #1f77b4; stroke: #1f77b4"/>
     <use xlink:href="#m4ba0728e4f" x="267.166857" y="44.443636" style="fill: #1f77b4; stroke: #1f77b4"/>
     <use xlink:href="#m4ba0728e4f" x="187.706609" y="72.117818" style="fill: #1f77b4; stroke: #1f77b4"/>
     <use xlink:href="#m4ba0728e4f" x="355.612009" y="44.443636" style="fill: #1f77b4; stroke: #1f77b4"/>
     <use xlink:href="#m4ba0728e4f" x="365.607716" y="44.443636" style="fill: #1f77b4; stroke: #1f77b4"/>
     <use xlink:href="#m4ba0728e4f" x="348.873331" y="54.327273" style="fill: #1f77b4; stroke: #1f77b4"/>
     <use xlink:href="#m4ba0728e4f" x="188.324321" y="238.162909" style="fill: #1f77b4; stroke: #1f77b4"/>
     <use xlink:href="#m4ba0728e4f" x="117.568199" y="178.861091" style="fill: #1f77b4; stroke: #1f77b4"/>
     <use xlink:href="#m4ba0728e4f" x="281.486548" y="78.048" style="fill: #1f77b4; stroke: #1f77b4"/>
     <use xlink:href="#m4ba0728e4f" x="371.953304" y="44.443636" style="fill: #1f77b4; stroke: #1f77b4"/>
     <use xlink:href="#m4ba0728e4f" x="244.086884" y="226.302545" style="fill: #1f77b4; stroke: #1f77b4"/>
     <use xlink:href="#m4ba0728e4f" x="279.801879" y="188.744727" style="fill: #1f77b4; stroke: #1f77b4"/>
     <use xlink:href="#m4ba0728e4f" x="115.265817" y="186.768" style="fill: #1f77b4; stroke: #1f77b4"/>
     <use xlink:href="#m4ba0728e4f" x="186.471184" y="93.861818" style="fill: #1f77b4; stroke: #1f77b4"/>
     <use xlink:href="#m4ba0728e4f" x="186.751962" y="204.558545" style="fill: #1f77b4; stroke: #1f77b4"/>
     <use xlink:href="#m4ba0728e4f" x="141.82744" y="66.187636" style="fill: #1f77b4; stroke: #1f77b4"/>
     <use xlink:href="#m4ba0728e4f" x="136.15572" y="76.071273" style="fill: #1f77b4; stroke: #1f77b4"/>
     <use xlink:href="#m4ba0728e4f" x="177.205502" y="240.139636" style="fill: #1f77b4; stroke: #1f77b4"/>
     <use xlink:href="#m4ba0728e4f" x="117.905133" y="137.349818" style="fill: #1f77b4; stroke: #1f77b4"/>
     <use xlink:href="#m4ba0728e4f" x="257.002684" y="115.605818" style="fill: #1f77b4; stroke: #1f77b4"/>
     <use xlink:href="#m4ba0728e4f" x="262.73056" y="163.047273" style="fill: #1f77b4; stroke: #1f77b4"/>
     <use xlink:href="#m4ba0728e4f" x="252.678698" y="54.327273" style="fill: #1f77b4; stroke: #1f77b4"/>
     <use xlink:href="#m4ba0728e4f" x="237.29205" y="242.116364" style="fill: #1f77b4; stroke: #1f77b4"/>
     <use xlink:href="#m4ba0728e4f" x="257.845018" y="202.581818" style="fill: #1f77b4; stroke: #1f77b4"/>
     <use xlink:href="#m4ba0728e4f" x="119.365179" y="242.116364" style="fill: #1f77b4; stroke: #1f77b4"/>
     <use xlink:href="#m4ba0728e4f" x="262.337471" y="163.047273" style="fill: #1f77b4; stroke: #1f77b4"/>
     <use xlink:href="#m4ba0728e4f" x="120.993693" y="163.047273" style="fill: #1f77b4; stroke: #1f77b4"/>
     <use xlink:href="#m4ba0728e4f" x="277.499497" y="44.443636" style="fill: #1f77b4; stroke: #1f77b4"/>
     <use xlink:href="#m4ba0728e4f" x="249.646293" y="50.373818" style="fill: #1f77b4; stroke: #1f77b4"/>
     <use xlink:href="#m4ba0728e4f" x="242.963771" y="242.116364" style="fill: #1f77b4; stroke: #1f77b4"/>
     <use xlink:href="#m4ba0728e4f" x="331.465079" y="44.443636" style="fill: #1f77b4; stroke: #1f77b4"/>
     <use xlink:href="#m4ba0728e4f" x="170.747601" y="242.116364" style="fill: #1f77b4; stroke: #1f77b4"/>
     <use xlink:href="#m4ba0728e4f" x="372.795639" y="204.558545" style="fill: #1f77b4; stroke: #1f77b4"/>
     <use xlink:href="#m4ba0728e4f" x="247.961624" y="44.443636" style="fill: #1f77b4; stroke: #1f77b4"/>
     <use xlink:href="#m4ba0728e4f" x="360.553707" y="48.397091" style="fill: #1f77b4; stroke: #1f77b4"/>
     <use xlink:href="#m4ba0728e4f" x="235.60738" y="74.094545" style="fill: #1f77b4; stroke: #1f77b4"/>
     <use xlink:href="#m4ba0728e4f" x="373.581818" y="44.443636" style="fill: #1f77b4; stroke: #1f77b4"/>
     <use xlink:href="#m4ba0728e4f" x="368.359343" y="89.908364" style="fill: #1f77b4; stroke: #1f77b4"/>
     <use xlink:href="#m4ba0728e4f" x="186.415029" y="242.116364" style="fill: #1f77b4; stroke: #1f77b4"/>
     <use xlink:href="#m4ba0728e4f" x="347.750218" y="99.792" style="fill: #1f77b4; stroke: #1f77b4"/>
     <use xlink:href="#m4ba0728e4f" x="303.050319" y="93.861818" style="fill: #1f77b4; stroke: #1f77b4"/>
     <use xlink:href="#m4ba0728e4f" x="182.764911" y="230.256" style="fill: #1f77b4; stroke: #1f77b4"/>
     <use xlink:href="#m4ba0728e4f" x="261.719758" y="163.047273" style="fill: #1f77b4; stroke: #1f77b4"/>
     <use xlink:href="#m4ba0728e4f" x="356.173566" y="163.047273" style="fill: #1f77b4; stroke: #1f77b4"/>
     <use xlink:href="#m4ba0728e4f" x="191.525193" y="242.116364" style="fill: #1f77b4; stroke: #1f77b4"/>
     <use xlink:href="#m4ba0728e4f" x="371.840993" y="44.443636" style="fill: #1f77b4; stroke: #1f77b4"/>
     <use xlink:href="#m4ba0728e4f" x="163.559678" y="202.581818" style="fill: #1f77b4; stroke: #1f77b4"/>
     <use xlink:href="#m4ba0728e4f" x="165.693593" y="95.838545" style="fill: #1f77b4; stroke: #1f77b4"/>
     <use xlink:href="#m4ba0728e4f" x="234.3158" y="214.442182" style="fill: #1f77b4; stroke: #1f77b4"/>
     <use xlink:href="#m4ba0728e4f" x="314.618383" y="210.488727" style="fill: #1f77b4; stroke: #1f77b4"/>
     <use xlink:href="#m4ba0728e4f" x="370.212479" y="168.977455" style="fill: #1f77b4; stroke: #1f77b4"/>
     <use xlink:href="#m4ba0728e4f" x="264.583697" y="222.349091" style="fill: #1f77b4; stroke: #1f77b4"/>
     <use xlink:href="#m4ba0728e4f" x="226.341697" y="163.047273" style="fill: #1f77b4; stroke: #1f77b4"/>
     <use xlink:href="#m4ba0728e4f" x="371.61637" y="60.257455" style="fill: #1f77b4; stroke: #1f77b4"/>
     <use xlink:href="#m4ba0728e4f" x="239.201342" y="242.116364" style="fill: #1f77b4; stroke: #1f77b4"/>
     <use xlink:href="#m4ba0728e4f" x="248.017779" y="163.047273" style="fill: #1f77b4; stroke: #1f77b4"/>
     <use xlink:href="#m4ba0728e4f" x="360.778329" y="44.443636" style="fill: #1f77b4; stroke: #1f77b4"/>
     <use xlink:href="#m4ba0728e4f" x="215.391345" y="242.116364" style="fill: #1f77b4; stroke: #1f77b4"/>
     <use xlink:href="#m4ba0728e4f" x="295.188527" y="121.536" style="fill: #1f77b4; stroke: #1f77b4"/>
     <use xlink:href="#m4ba0728e4f" x="197.533848" y="44.443636" style="fill: #1f77b4; stroke: #1f77b4"/>
     <use xlink:href="#m4ba0728e4f" x="263.067494" y="44.443636" style="fill: #1f77b4; stroke: #1f77b4"/>
     <use xlink:href="#m4ba0728e4f" x="335.789064" y="83.978182" style="fill: #1f77b4; stroke: #1f77b4"/>
     <use xlink:href="#m4ba0728e4f" x="327.814961" y="212.465455" style="fill: #1f77b4; stroke: #1f77b4"/>
     <use xlink:href="#m4ba0728e4f" x="300.017913" y="242.116364" style="fill: #1f77b4; stroke: #1f77b4"/>
     <use xlink:href="#m4ba0728e4f" x="227.296344" y="234.209455" style="fill: #1f77b4; stroke: #1f77b4"/>
     <use xlink:href="#m4ba0728e4f" x="261.551292" y="46.420364" style="fill: #1f77b4; stroke: #1f77b4"/>
     <use xlink:href="#m4ba0728e4f" x="210.393492" y="121.536" style="fill: #1f77b4; stroke: #1f77b4"/>
     <use xlink:href="#m4ba0728e4f" x="182.25951" y="54.327273" style="fill: #1f77b4; stroke: #1f77b4"/>
     <use xlink:href="#m4ba0728e4f" x="87.075679" y="163.047273" style="fill: #1f77b4; stroke: #1f77b4"/>
     <use xlink:href="#m4ba0728e4f" x="291.594566" y="83.978182" style="fill: #1f77b4; stroke: #1f77b4"/>
     <use xlink:href="#m4ba0728e4f" x="281.261926" y="44.443636" style="fill: #1f77b4; stroke: #1f77b4"/>
     <use xlink:href="#m4ba0728e4f" x="287.719826" y="163.047273" style="fill: #1f77b4; stroke: #1f77b4"/>
     <use xlink:href="#m4ba0728e4f" x="160.471117" y="242.116364" style="fill: #1f77b4; stroke: #1f77b4"/>
     <use xlink:href="#m4ba0728e4f" x="354.82583" y="44.443636" style="fill: #1f77b4; stroke: #1f77b4"/>
     <use xlink:href="#m4ba0728e4f" x="324.445622" y="115.605818" style="fill: #1f77b4; stroke: #1f77b4"/>
     <use xlink:href="#m4ba0728e4f" x="263.348272" y="44.443636" style="fill: #1f77b4; stroke: #1f77b4"/>
     <use xlink:href="#m4ba0728e4f" x="331.97048" y="202.581818" style="fill: #1f77b4; stroke: #1f77b4"/>
     <use xlink:href="#m4ba0728e4f" x="181.922576" y="242.116364" style="fill: #1f77b4; stroke: #1f77b4"/>
     <use xlink:href="#m4ba0728e4f" x="307.992016" y="44.443636" style="fill: #1f77b4; stroke: #1f77b4"/>
     <use xlink:href="#m4ba0728e4f" x="326.80416" y="60.257455" style="fill: #1f77b4; stroke: #1f77b4"/>
     <use xlink:href="#m4ba0728e4f" x="119.365179" y="238.162909" style="fill: #1f77b4; stroke: #1f77b4"/>
     <use xlink:href="#m4ba0728e4f" x="199.836229" y="242.116364" style="fill: #1f77b4; stroke: #1f77b4"/>
     <use xlink:href="#m4ba0728e4f" x="372.851795" y="44.443636" style="fill: #1f77b4; stroke: #1f77b4"/>
     <use xlink:href="#m4ba0728e4f" x="270.985441" y="50.373818" style="fill: #1f77b4; stroke: #1f77b4"/>
     <use xlink:href="#m4ba0728e4f" x="365.270782" y="44.443636" style="fill: #1f77b4; stroke: #1f77b4"/>
     <use xlink:href="#m4ba0728e4f" x="263.460584" y="208.512" style="fill: #1f77b4; stroke: #1f77b4"/>
     <use xlink:href="#m4ba0728e4f" x="372.90795" y="93.861818" style="fill: #1f77b4; stroke: #1f77b4"/>
     <use xlink:href="#m4ba0728e4f" x="259.192754" y="44.443636" style="fill: #1f77b4; stroke: #1f77b4"/>
     <use xlink:href="#m4ba0728e4f" x="344.437035" y="163.047273" style="fill: #1f77b4; stroke: #1f77b4"/>
     <use xlink:href="#m4ba0728e4f" x="186.021939" y="236.186182" style="fill: #1f77b4; stroke: #1f77b4"/>
     <use xlink:href="#m4ba0728e4f" x="244.816907" y="230.256" style="fill: #1f77b4; stroke: #1f77b4"/>
     <use xlink:href="#m4ba0728e4f" x="362.519155" y="76.071273" style="fill: #1f77b4; stroke: #1f77b4"/>
     <use xlink:href="#m4ba0728e4f" x="251.892519" y="242.116364" style="fill: #1f77b4; stroke: #1f77b4"/>
     <use xlink:href="#m4ba0728e4f" x="179.844817" y="83.978182" style="fill: #1f77b4; stroke: #1f77b4"/>
     <use xlink:href="#m4ba0728e4f" x="262.786716" y="202.581818" style="fill: #1f77b4; stroke: #1f77b4"/>
     <use xlink:href="#m4ba0728e4f" x="215.33519" y="242.116364" style="fill: #1f77b4; stroke: #1f77b4"/>
     <use xlink:href="#m4ba0728e4f" x="299.849446" y="44.443636" style="fill: #1f77b4; stroke: #1f77b4"/>
     <use xlink:href="#m4ba0728e4f" x="250.994029" y="60.257455" style="fill: #1f77b4; stroke: #1f77b4"/>
     <use xlink:href="#m4ba0728e4f" x="260.933579" y="44.443636" style="fill: #1f77b4; stroke: #1f77b4"/>
     <use xlink:href="#m4ba0728e4f" x="361.901442" y="46.420364" style="fill: #1f77b4; stroke: #1f77b4"/>
     <use xlink:href="#m4ba0728e4f" x="280.251124" y="44.443636" style="fill: #1f77b4; stroke: #1f77b4"/>
     <use xlink:href="#m4ba0728e4f" x="355.780476" y="44.443636" style="fill: #1f77b4; stroke: #1f77b4"/>
     <use xlink:href="#m4ba0728e4f" x="144.4106" y="44.443636" style="fill: #1f77b4; stroke: #1f77b4"/>
     <use xlink:href="#m4ba0728e4f" x="342.022341" y="72.117818" style="fill: #1f77b4; stroke: #1f77b4"/>
     <use xlink:href="#m4ba0728e4f" x="331.240456" y="44.443636" style="fill: #1f77b4; stroke: #1f77b4"/>
     <use xlink:href="#m4ba0728e4f" x="242.346058" y="60.257455" style="fill: #1f77b4; stroke: #1f77b4"/>
     <use xlink:href="#m4ba0728e4f" x="356.342033" y="44.443636" style="fill: #1f77b4; stroke: #1f77b4"/>
     <use xlink:href="#m4ba0728e4f" x="313.046025" y="93.861818" style="fill: #1f77b4; stroke: #1f77b4"/>
     <use xlink:href="#m4ba0728e4f" x="286.933646" y="76.071273" style="fill: #1f77b4; stroke: #1f77b4"/>
     <use xlink:href="#m4ba0728e4f" x="330.061188" y="48.397091" style="fill: #1f77b4; stroke: #1f77b4"/>
     <use xlink:href="#m4ba0728e4f" x="262.842872" y="44.443636" style="fill: #1f77b4; stroke: #1f77b4"/>
     <use xlink:href="#m4ba0728e4f" x="355.892788" y="44.443636" style="fill: #1f77b4; stroke: #1f77b4"/>
     <use xlink:href="#m4ba0728e4f" x="236.281248" y="224.325818" style="fill: #1f77b4; stroke: #1f77b4"/>
     <use xlink:href="#m4ba0728e4f" x="269.918484" y="44.443636" style="fill: #1f77b4; stroke: #1f77b4"/>
     <use xlink:href="#m4ba0728e4f" x="200.453942" y="234.209455" style="fill: #1f77b4; stroke: #1f77b4"/>
     <use xlink:href="#m4ba0728e4f" x="221.905401" y="163.047273" style="fill: #1f77b4; stroke: #1f77b4"/>
     <use xlink:href="#m4ba0728e4f" x="121.892184" y="85.954909" style="fill: #1f77b4; stroke: #1f77b4"/>
     <use xlink:href="#m4ba0728e4f" x="309.845153" y="52.350545" style="fill: #1f77b4; stroke: #1f77b4"/>
     <use xlink:href="#m4ba0728e4f" x="219.71533" y="240.139636" style="fill: #1f77b4; stroke: #1f77b4"/>
     <use xlink:href="#m4ba0728e4f" x="265.987588" y="44.443636" style="fill: #1f77b4; stroke: #1f77b4"/>
     <use xlink:href="#m4ba0728e4f" x="185.797316" y="172.930909" style="fill: #1f77b4; stroke: #1f77b4"/>
     <use xlink:href="#m4ba0728e4f" x="117.062798" y="182.814545" style="fill: #1f77b4; stroke: #1f77b4"/>
     <use xlink:href="#m4ba0728e4f" x="255.430325" y="50.373818" style="fill: #1f77b4; stroke: #1f77b4"/>
     <use xlink:href="#m4ba0728e4f" x="187.538142" y="242.116364" style="fill: #1f77b4; stroke: #1f77b4"/>
     <use xlink:href="#m4ba0728e4f" x="206.350285" y="44.443636" style="fill: #1f77b4; stroke: #1f77b4"/>
     <use xlink:href="#m4ba0728e4f" x="339.663804" y="93.861818" style="fill: #1f77b4; stroke: #1f77b4"/>
     <use xlink:href="#m4ba0728e4f" x="287.888293" y="62.234182" style="fill: #1f77b4; stroke: #1f77b4"/>
     <use xlink:href="#m4ba0728e4f" x="268.065347" y="44.443636" style="fill: #1f77b4; stroke: #1f77b4"/>
     <use xlink:href="#m4ba0728e4f" x="364.765381" y="147.233455" style="fill: #1f77b4; stroke: #1f77b4"/>
     <use xlink:href="#m4ba0728e4f" x="338.316068" y="44.443636" style="fill: #1f77b4; stroke: #1f77b4"/>
     <use xlink:href="#m4ba0728e4f" x="314.000671" y="159.093818" style="fill: #1f77b4; stroke: #1f77b4"/>
     <use xlink:href="#m4ba0728e4f" x="362.182221" y="44.443636" style="fill: #1f77b4; stroke: #1f77b4"/>
     <use xlink:href="#m4ba0728e4f" x="359.99215" y="44.443636" style="fill: #1f77b4; stroke: #1f77b4"/>
     <use xlink:href="#m4ba0728e4f" x="317.313854" y="125.489455" style="fill: #1f77b4; stroke: #1f77b4"/>
     <use xlink:href="#m4ba0728e4f" x="213.369742" y="242.116364" style="fill: #1f77b4; stroke: #1f77b4"/>
     <use xlink:href="#m4ba0728e4f" x="282.385039" y="62.234182" style="fill: #1f77b4; stroke: #1f77b4"/>
     <use xlink:href="#m4ba0728e4f" x="288.393693" y="155.140364" style="fill: #1f77b4; stroke: #1f77b4"/>
     <use xlink:href="#m4ba0728e4f" x="288.225226" y="52.350545" style="fill: #1f77b4; stroke: #1f77b4"/>
     <use xlink:href="#m4ba0728e4f" x="182.371822" y="242.116364" style="fill: #1f77b4; stroke: #1f77b4"/>
     <use xlink:href="#m4ba0728e4f" x="248.467024" y="44.443636" style="fill: #1f77b4; stroke: #1f77b4"/>
     <use xlink:href="#m4ba0728e4f" x="272.220865" y="44.443636" style="fill: #1f77b4; stroke: #1f77b4"/>
     <use xlink:href="#m4ba0728e4f" x="329.38732" y="44.443636" style="fill: #1f77b4; stroke: #1f77b4"/>
     <use xlink:href="#m4ba0728e4f" x="281.935793" y="93.861818" style="fill: #1f77b4; stroke: #1f77b4"/>
     <use xlink:href="#m4ba0728e4f" x="284.799732" y="72.117818" style="fill: #1f77b4; stroke: #1f77b4"/>
     <use xlink:href="#m4ba0728e4f" x="191.581349" y="242.116364" style="fill: #1f77b4; stroke: #1f77b4"/>
     <use xlink:href="#m4ba0728e4f" x="241.447568" y="46.420364" style="fill: #1f77b4; stroke: #1f77b4"/>
     <use xlink:href="#m4ba0728e4f" x="131.270178" y="50.373818" style="fill: #1f77b4; stroke: #1f77b4"/>
     <use xlink:href="#m4ba0728e4f" x="322.648641" y="163.047273" style="fill: #1f77b4; stroke: #1f77b4"/>
     <use xlink:href="#m4ba0728e4f" x="248.242402" y="46.420364" style="fill: #1f77b4; stroke: #1f77b4"/>
     <use xlink:href="#m4ba0728e4f" x="204.328682" y="240.139636" style="fill: #1f77b4; stroke: #1f77b4"/>
     <use xlink:href="#m4ba0728e4f" x="299.007112" y="44.443636" style="fill: #1f77b4; stroke: #1f77b4"/>
     <use xlink:href="#m4ba0728e4f" x="242.963771" y="242.116364" style="fill: #1f77b4; stroke: #1f77b4"/>
     <use xlink:href="#m4ba0728e4f" x="224.769339" y="202.581818" style="fill: #1f77b4; stroke: #1f77b4"/>
     <use xlink:href="#m4ba0728e4f" x="289.460651" y="44.443636" style="fill: #1f77b4; stroke: #1f77b4"/>
     <use xlink:href="#m4ba0728e4f" x="260.484334" y="141.303273" style="fill: #1f77b4; stroke: #1f77b4"/>
     <use xlink:href="#m4ba0728e4f" x="164.514324" y="44.443636" style="fill: #1f77b4; stroke: #1f77b4"/>
     <use xlink:href="#m4ba0728e4f" x="253.408722" y="210.488727" style="fill: #1f77b4; stroke: #1f77b4"/>
     <use xlink:href="#m4ba0728e4f" x="178.553237" y="228.279273" style="fill: #1f77b4; stroke: #1f77b4"/>
     <use xlink:href="#m4ba0728e4f" x="309.339752" y="163.047273" style="fill: #1f77b4; stroke: #1f77b4"/>
     <use xlink:href="#m4ba0728e4f" x="162.043475" y="44.443636" style="fill: #1f77b4; stroke: #1f77b4"/>
     <use xlink:href="#m4ba0728e4f" x="252.734854" y="206.535273" style="fill: #1f77b4; stroke: #1f77b4"/>
     <use xlink:href="#m4ba0728e4f" x="263.404428" y="224.325818" style="fill: #1f77b4; stroke: #1f77b4"/>
     <use xlink:href="#m4ba0728e4f" x="239.201342" y="163.047273" style="fill: #1f77b4; stroke: #1f77b4"/>
     <use xlink:href="#m4ba0728e4f" x="373.525663" y="163.047273" style="fill: #1f77b4; stroke: #1f77b4"/>
    </g>
   </g>
   <g id="matplotlib.axis_1">
    <g id="xtick_1">
     <g id="line2d_1">
      <defs>
       <path id="mc50691832f" d="M 0 0 
L 0 3.5 
" style="stroke: #000000; stroke-width: 0.8"/>
      </defs>
      <g>
       <use xlink:href="#mc50691832f" x="96.172895" y="252" style="stroke: #000000; stroke-width: 0.8"/>
      </g>
     </g>
     <g id="text_1">
      <!-- −50 -->
      <g transform="translate(85.620551 266.598437)scale(0.1 -0.1)">
       <defs>
        <path id="DejaVuSans-2212" d="M 678 2272 
L 4684 2272 
L 4684 1741 
L 678 1741 
L 678 2272 
z
" transform="scale(0.015625)"/>
        <path id="DejaVuSans-35" d="M 691 4666 
L 3169 4666 
L 3169 4134 
L 1269 4134 
L 1269 2991 
Q 1406 3038 1543 3061 
Q 1681 3084 1819 3084 
Q 2600 3084 3056 2656 
Q 3513 2228 3513 1497 
Q 3513 744 3044 326 
Q 2575 -91 1722 -91 
Q 1428 -91 1123 -41 
Q 819 9 494 109 
L 494 744 
Q 775 591 1075 516 
Q 1375 441 1709 441 
Q 2250 441 2565 725 
Q 2881 1009 2881 1497 
Q 2881 1984 2565 2268 
Q 2250 2553 1709 2553 
Q 1456 2553 1204 2497 
Q 953 2441 691 2322 
L 691 4666 
z
" transform="scale(0.015625)"/>
        <path id="DejaVuSans-30" d="M 2034 4250 
Q 1547 4250 1301 3770 
Q 1056 3291 1056 2328 
Q 1056 1369 1301 889 
Q 1547 409 2034 409 
Q 2525 409 2770 889 
Q 3016 1369 3016 2328 
Q 3016 3291 2770 3770 
Q 2525 4250 2034 4250 
z
M 2034 4750 
Q 2819 4750 3233 4129 
Q 3647 3509 3647 2328 
Q 3647 1150 3233 529 
Q 2819 -91 2034 -91 
Q 1250 -91 836 529 
Q 422 1150 422 2328 
Q 422 3509 836 4129 
Q 1250 4750 2034 4750 
z
" transform="scale(0.015625)"/>
       </defs>
       <use xlink:href="#DejaVuSans-2212"/>
       <use xlink:href="#DejaVuSans-35" x="83.789062"/>
       <use xlink:href="#DejaVuSans-30" x="147.412109"/>
      </g>
     </g>
    </g>
    <g id="xtick_2">
     <g id="line2d_2">
      <g>
       <use xlink:href="#mc50691832f" x="152.328547" y="252" style="stroke: #000000; stroke-width: 0.8"/>
      </g>
     </g>
     <g id="text_2">
      <!-- −40 -->
      <g transform="translate(141.776204 266.598437)scale(0.1 -0.1)">
       <defs>
        <path id="DejaVuSans-34" d="M 2419 4116 
L 825 1625 
L 2419 1625 
L 2419 4116 
z
M 2253 4666 
L 3047 4666 
L 3047 1625 
L 3713 1625 
L 3713 1100 
L 3047 1100 
L 3047 0 
L 2419 0 
L 2419 1100 
L 313 1100 
L 313 1709 
L 2253 4666 
z
" transform="scale(0.015625)"/>
       </defs>
       <use xlink:href="#DejaVuSans-2212"/>
       <use xlink:href="#DejaVuSans-34" x="83.789062"/>
       <use xlink:href="#DejaVuSans-30" x="147.412109"/>
      </g>
     </g>
    </g>
    <g id="xtick_3">
     <g id="line2d_3">
      <g>
       <use xlink:href="#mc50691832f" x="208.4842" y="252" style="stroke: #000000; stroke-width: 0.8"/>
      </g>
     </g>
     <g id="text_3">
      <!-- −30 -->
      <g transform="translate(197.931856 266.598437)scale(0.1 -0.1)">
       <defs>
        <path id="DejaVuSans-33" d="M 2597 2516 
Q 3050 2419 3304 2112 
Q 3559 1806 3559 1356 
Q 3559 666 3084 287 
Q 2609 -91 1734 -91 
Q 1441 -91 1130 -33 
Q 819 25 488 141 
L 488 750 
Q 750 597 1062 519 
Q 1375 441 1716 441 
Q 2309 441 2620 675 
Q 2931 909 2931 1356 
Q 2931 1769 2642 2001 
Q 2353 2234 1838 2234 
L 1294 2234 
L 1294 2753 
L 1863 2753 
Q 2328 2753 2575 2939 
Q 2822 3125 2822 3475 
Q 2822 3834 2567 4026 
Q 2313 4219 1838 4219 
Q 1578 4219 1281 4162 
Q 984 4106 628 3988 
L 628 4550 
Q 988 4650 1302 4700 
Q 1616 4750 1894 4750 
Q 2613 4750 3031 4423 
Q 3450 4097 3450 3541 
Q 3450 3153 3228 2886 
Q 3006 2619 2597 2516 
z
" transform="scale(0.015625)"/>
       </defs>
       <use xlink:href="#DejaVuSans-2212"/>
       <use xlink:href="#DejaVuSans-33" x="83.789062"/>
       <use xlink:href="#DejaVuSans-30" x="147.412109"/>
      </g>
     </g>
    </g>
    <g id="xtick_4">
     <g id="line2d_4">
      <g>
       <use xlink:href="#mc50691832f" x="264.639852" y="252" style="stroke: #000000; stroke-width: 0.8"/>
      </g>
     </g>
     <g id="text_4">
      <!-- −20 -->
      <g transform="translate(254.087509 266.598437)scale(0.1 -0.1)">
       <defs>
        <path id="DejaVuSans-32" d="M 1228 531 
L 3431 531 
L 3431 0 
L 469 0 
L 469 531 
Q 828 903 1448 1529 
Q 2069 2156 2228 2338 
Q 2531 2678 2651 2914 
Q 2772 3150 2772 3378 
Q 2772 3750 2511 3984 
Q 2250 4219 1831 4219 
Q 1534 4219 1204 4116 
Q 875 4013 500 3803 
L 500 4441 
Q 881 4594 1212 4672 
Q 1544 4750 1819 4750 
Q 2544 4750 2975 4387 
Q 3406 4025 3406 3419 
Q 3406 3131 3298 2873 
Q 3191 2616 2906 2266 
Q 2828 2175 2409 1742 
Q 1991 1309 1228 531 
z
" transform="scale(0.015625)"/>
       </defs>
       <use xlink:href="#DejaVuSans-2212"/>
       <use xlink:href="#DejaVuSans-32" x="83.789062"/>
       <use xlink:href="#DejaVuSans-30" x="147.412109"/>
      </g>
     </g>
    </g>
    <g id="xtick_5">
     <g id="line2d_5">
      <g>
       <use xlink:href="#mc50691832f" x="320.795505" y="252" style="stroke: #000000; stroke-width: 0.8"/>
      </g>
     </g>
     <g id="text_5">
      <!-- −10 -->
      <g transform="translate(310.243161 266.598437)scale(0.1 -0.1)">
       <defs>
        <path id="DejaVuSans-31" d="M 794 531 
L 1825 531 
L 1825 4091 
L 703 3866 
L 703 4441 
L 1819 4666 
L 2450 4666 
L 2450 531 
L 3481 531 
L 3481 0 
L 794 0 
L 794 531 
z
" transform="scale(0.015625)"/>
       </defs>
       <use xlink:href="#DejaVuSans-2212"/>
       <use xlink:href="#DejaVuSans-31" x="83.789062"/>
       <use xlink:href="#DejaVuSans-30" x="147.412109"/>
      </g>
     </g>
    </g>
    <g id="xtick_6">
     <g id="line2d_6">
      <g>
       <use xlink:href="#mc50691832f" x="376.951157" y="252" style="stroke: #000000; stroke-width: 0.8"/>
      </g>
     </g>
     <g id="text_6">
      <!-- 0 -->
      <g transform="translate(373.769907 266.598437)scale(0.1 -0.1)">
       <use xlink:href="#DejaVuSans-30"/>
      </g>
     </g>
    </g>
    <g id="text_7">
     <!-- Latitude -->
     <g transform="translate(200.821094 280.276563)scale(0.1 -0.1)">
      <defs>
       <path id="DejaVuSans-4c" d="M 628 4666 
L 1259 4666 
L 1259 531 
L 3531 531 
L 3531 0 
L 628 0 
L 628 4666 
z
" transform="scale(0.015625)"/>
       <path id="DejaVuSans-61" d="M 2194 1759 
Q 1497 1759 1228 1600 
Q 959 1441 959 1056 
Q 959 750 1161 570 
Q 1363 391 1709 391 
Q 2188 391 2477 730 
Q 2766 1069 2766 1631 
L 2766 1759 
L 2194 1759 
z
M 3341 1997 
L 3341 0 
L 2766 0 
L 2766 531 
Q 2569 213 2275 61 
Q 1981 -91 1556 -91 
Q 1019 -91 701 211 
Q 384 513 384 1019 
Q 384 1609 779 1909 
Q 1175 2209 1959 2209 
L 2766 2209 
L 2766 2266 
Q 2766 2663 2505 2880 
Q 2244 3097 1772 3097 
Q 1472 3097 1187 3025 
Q 903 2953 641 2809 
L 641 3341 
Q 956 3463 1253 3523 
Q 1550 3584 1831 3584 
Q 2591 3584 2966 3190 
Q 3341 2797 3341 1997 
z
" transform="scale(0.015625)"/>
       <path id="DejaVuSans-74" d="M 1172 4494 
L 1172 3500 
L 2356 3500 
L 2356 3053 
L 1172 3053 
L 1172 1153 
Q 1172 725 1289 603 
Q 1406 481 1766 481 
L 2356 481 
L 2356 0 
L 1766 0 
Q 1100 0 847 248 
Q 594 497 594 1153 
L 594 3053 
L 172 3053 
L 172 3500 
L 594 3500 
L 594 4494 
L 1172 4494 
z
" transform="scale(0.015625)"/>
       <path id="DejaVuSans-69" d="M 603 3500 
L 1178 3500 
L 1178 0 
L 603 0 
L 603 3500 
z
M 603 4863 
L 1178 4863 
L 1178 4134 
L 603 4134 
L 603 4863 
z
" transform="scale(0.015625)"/>
       <path id="DejaVuSans-75" d="M 544 1381 
L 544 3500 
L 1119 3500 
L 1119 1403 
Q 1119 906 1312 657 
Q 1506 409 1894 409 
Q 2359 409 2629 706 
Q 2900 1003 2900 1516 
L 2900 3500 
L 3475 3500 
L 3475 0 
L 2900 0 
L 2900 538 
Q 2691 219 2414 64 
Q 2138 -91 1772 -91 
Q 1169 -91 856 284 
Q 544 659 544 1381 
z
M 1991 3584 
L 1991 3584 
z
" transform="scale(0.015625)"/>
       <path id="DejaVuSans-64" d="M 2906 2969 
L 2906 4863 
L 3481 4863 
L 3481 0 
L 2906 0 
L 2906 525 
Q 2725 213 2448 61 
Q 2172 -91 1784 -91 
Q 1150 -91 751 415 
Q 353 922 353 1747 
Q 353 2572 751 3078 
Q 1150 3584 1784 3584 
Q 2172 3584 2448 3432 
Q 2725 3281 2906 2969 
z
M 947 1747 
Q 947 1113 1208 752 
Q 1469 391 1925 391 
Q 2381 391 2643 752 
Q 2906 1113 2906 1747 
Q 2906 2381 2643 2742 
Q 2381 3103 1925 3103 
Q 1469 3103 1208 2742 
Q 947 2381 947 1747 
z
" transform="scale(0.015625)"/>
       <path id="DejaVuSans-65" d="M 3597 1894 
L 3597 1613 
L 953 1613 
Q 991 1019 1311 708 
Q 1631 397 2203 397 
Q 2534 397 2845 478 
Q 3156 559 3463 722 
L 3463 178 
Q 3153 47 2828 -22 
Q 2503 -91 2169 -91 
Q 1331 -91 842 396 
Q 353 884 353 1716 
Q 353 2575 817 3079 
Q 1281 3584 2069 3584 
Q 2775 3584 3186 3129 
Q 3597 2675 3597 1894 
z
M 3022 2063 
Q 3016 2534 2758 2815 
Q 2500 3097 2075 3097 
Q 1594 3097 1305 2825 
Q 1016 2553 972 2059 
L 3022 2063 
z
" transform="scale(0.015625)"/>
      </defs>
      <use xlink:href="#DejaVuSans-4c"/>
      <use xlink:href="#DejaVuSans-61" x="55.712891"/>
      <use xlink:href="#DejaVuSans-74" x="116.992188"/>
      <use xlink:href="#DejaVuSans-69" x="156.201172"/>
      <use xlink:href="#DejaVuSans-74" x="183.984375"/>
      <use xlink:href="#DejaVuSans-75" x="223.193359"/>
      <use xlink:href="#DejaVuSans-64" x="286.572266"/>
      <use xlink:href="#DejaVuSans-65" x="350.048828"/>
     </g>
    </g>
   </g>
   <g id="matplotlib.axis_2">
    <g id="ytick_1">
     <g id="line2d_7">
      <defs>
       <path id="maa8692f73e" d="M 0 0 
L -3.5 0 
" style="stroke: #000000; stroke-width: 0.8"/>
      </defs>
      <g>
       <use xlink:href="#maa8692f73e" x="54" y="242.116364" style="stroke: #000000; stroke-width: 0.8"/>
      </g>
     </g>
     <g id="text_8">
      <!-- 0 -->
      <g transform="translate(40.6375 245.915582)scale(0.1 -0.1)">
       <use xlink:href="#DejaVuSans-30"/>
      </g>
     </g>
    </g>
    <g id="ytick_2">
     <g id="line2d_8">
      <g>
       <use xlink:href="#maa8692f73e" x="54" y="202.581818" style="stroke: #000000; stroke-width: 0.8"/>
      </g>
     </g>
     <g id="text_9">
      <!-- 20 -->
      <g transform="translate(34.275 206.381037)scale(0.1 -0.1)">
       <use xlink:href="#DejaVuSans-32"/>
       <use xlink:href="#DejaVuSans-30" x="63.623047"/>
      </g>
     </g>
    </g>
    <g id="ytick_3">
     <g id="line2d_9">
      <g>
       <use xlink:href="#maa8692f73e" x="54" y="163.047273" style="stroke: #000000; stroke-width: 0.8"/>
      </g>
     </g>
     <g id="text_10">
      <!-- 40 -->
      <g transform="translate(34.275 166.846491)scale(0.1 -0.1)">
       <use xlink:href="#DejaVuSans-34"/>
       <use xlink:href="#DejaVuSans-30" x="63.623047"/>
      </g>
     </g>
    </g>
    <g id="ytick_4">
     <g id="line2d_10">
      <g>
       <use xlink:href="#maa8692f73e" x="54" y="123.512727" style="stroke: #000000; stroke-width: 0.8"/>
      </g>
     </g>
     <g id="text_11">
      <!-- 60 -->
      <g transform="translate(34.275 127.311946)scale(0.1 -0.1)">
       <defs>
        <path id="DejaVuSans-36" d="M 2113 2584 
Q 1688 2584 1439 2293 
Q 1191 2003 1191 1497 
Q 1191 994 1439 701 
Q 1688 409 2113 409 
Q 2538 409 2786 701 
Q 3034 994 3034 1497 
Q 3034 2003 2786 2293 
Q 2538 2584 2113 2584 
z
M 3366 4563 
L 3366 3988 
Q 3128 4100 2886 4159 
Q 2644 4219 2406 4219 
Q 1781 4219 1451 3797 
Q 1122 3375 1075 2522 
Q 1259 2794 1537 2939 
Q 1816 3084 2150 3084 
Q 2853 3084 3261 2657 
Q 3669 2231 3669 1497 
Q 3669 778 3244 343 
Q 2819 -91 2113 -91 
Q 1303 -91 875 529 
Q 447 1150 447 2328 
Q 447 3434 972 4092 
Q 1497 4750 2381 4750 
Q 2619 4750 2861 4703 
Q 3103 4656 3366 4563 
z
" transform="scale(0.015625)"/>
       </defs>
       <use xlink:href="#DejaVuSans-36"/>
       <use xlink:href="#DejaVuSans-30" x="63.623047"/>
      </g>
     </g>
    </g>
    <g id="ytick_5">
     <g id="line2d_11">
      <g>
       <use xlink:href="#maa8692f73e" x="54" y="83.978182" style="stroke: #000000; stroke-width: 0.8"/>
      </g>
     </g>
     <g id="text_12">
      <!-- 80 -->
      <g transform="translate(34.275 87.777401)scale(0.1 -0.1)">
       <defs>
        <path id="DejaVuSans-38" d="M 2034 2216 
Q 1584 2216 1326 1975 
Q 1069 1734 1069 1313 
Q 1069 891 1326 650 
Q 1584 409 2034 409 
Q 2484 409 2743 651 
Q 3003 894 3003 1313 
Q 3003 1734 2745 1975 
Q 2488 2216 2034 2216 
z
M 1403 2484 
Q 997 2584 770 2862 
Q 544 3141 544 3541 
Q 544 4100 942 4425 
Q 1341 4750 2034 4750 
Q 2731 4750 3128 4425 
Q 3525 4100 3525 3541 
Q 3525 3141 3298 2862 
Q 3072 2584 2669 2484 
Q 3125 2378 3379 2068 
Q 3634 1759 3634 1313 
Q 3634 634 3220 271 
Q 2806 -91 2034 -91 
Q 1263 -91 848 271 
Q 434 634 434 1313 
Q 434 1759 690 2068 
Q 947 2378 1403 2484 
z
M 1172 3481 
Q 1172 3119 1398 2916 
Q 1625 2713 2034 2713 
Q 2441 2713 2670 2916 
Q 2900 3119 2900 3481 
Q 2900 3844 2670 4047 
Q 2441 4250 2034 4250 
Q 1625 4250 1398 4047 
Q 1172 3844 1172 3481 
z
" transform="scale(0.015625)"/>
       </defs>
       <use xlink:href="#DejaVuSans-38"/>
       <use xlink:href="#DejaVuSans-30" x="63.623047"/>
      </g>
     </g>
    </g>
    <g id="ytick_6">
     <g id="line2d_12">
      <g>
       <use xlink:href="#maa8692f73e" x="54" y="44.443636" style="stroke: #000000; stroke-width: 0.8"/>
      </g>
     </g>
     <g id="text_13">
      <!-- 100 -->
      <g transform="translate(27.9125 48.242855)scale(0.1 -0.1)">
       <use xlink:href="#DejaVuSans-31"/>
       <use xlink:href="#DejaVuSans-30" x="63.623047"/>
       <use xlink:href="#DejaVuSans-30" x="127.246094"/>
      </g>
     </g>
    </g>
    <g id="text_14">
     <!-- Cloudiness (%) -->
     <g transform="translate(21.832812 180.647969)rotate(-90)scale(0.1 -0.1)">
      <defs>
       <path id="DejaVuSans-43" d="M 4122 4306 
L 4122 3641 
Q 3803 3938 3442 4084 
Q 3081 4231 2675 4231 
Q 1875 4231 1450 3742 
Q 1025 3253 1025 2328 
Q 1025 1406 1450 917 
Q 1875 428 2675 428 
Q 3081 428 3442 575 
Q 3803 722 4122 1019 
L 4122 359 
Q 3791 134 3420 21 
Q 3050 -91 2638 -91 
Q 1578 -91 968 557 
Q 359 1206 359 2328 
Q 359 3453 968 4101 
Q 1578 4750 2638 4750 
Q 3056 4750 3426 4639 
Q 3797 4528 4122 4306 
z
" transform="scale(0.015625)"/>
       <path id="DejaVuSans-6c" d="M 603 4863 
L 1178 4863 
L 1178 0 
L 603 0 
L 603 4863 
z
" transform="scale(0.015625)"/>
       <path id="DejaVuSans-6f" d="M 1959 3097 
Q 1497 3097 1228 2736 
Q 959 2375 959 1747 
Q 959 1119 1226 758 
Q 1494 397 1959 397 
Q 2419 397 2687 759 
Q 2956 1122 2956 1747 
Q 2956 2369 2687 2733 
Q 2419 3097 1959 3097 
z
M 1959 3584 
Q 2709 3584 3137 3096 
Q 3566 2609 3566 1747 
Q 3566 888 3137 398 
Q 2709 -91 1959 -91 
Q 1206 -91 779 398 
Q 353 888 353 1747 
Q 353 2609 779 3096 
Q 1206 3584 1959 3584 
z
" transform="scale(0.015625)"/>
       <path id="DejaVuSans-6e" d="M 3513 2113 
L 3513 0 
L 2938 0 
L 2938 2094 
Q 2938 2591 2744 2837 
Q 2550 3084 2163 3084 
Q 1697 3084 1428 2787 
Q 1159 2491 1159 1978 
L 1159 0 
L 581 0 
L 581 3500 
L 1159 3500 
L 1159 2956 
Q 1366 3272 1645 3428 
Q 1925 3584 2291 3584 
Q 2894 3584 3203 3211 
Q 3513 2838 3513 2113 
z
" transform="scale(0.015625)"/>
       <path id="DejaVuSans-73" d="M 2834 3397 
L 2834 2853 
Q 2591 2978 2328 3040 
Q 2066 3103 1784 3103 
Q 1356 3103 1142 2972 
Q 928 2841 928 2578 
Q 928 2378 1081 2264 
Q 1234 2150 1697 2047 
L 1894 2003 
Q 2506 1872 2764 1633 
Q 3022 1394 3022 966 
Q 3022 478 2636 193 
Q 2250 -91 1575 -91 
Q 1294 -91 989 -36 
Q 684 19 347 128 
L 347 722 
Q 666 556 975 473 
Q 1284 391 1588 391 
Q 1994 391 2212 530 
Q 2431 669 2431 922 
Q 2431 1156 2273 1281 
Q 2116 1406 1581 1522 
L 1381 1569 
Q 847 1681 609 1914 
Q 372 2147 372 2553 
Q 372 3047 722 3315 
Q 1072 3584 1716 3584 
Q 2034 3584 2315 3537 
Q 2597 3491 2834 3397 
z
" transform="scale(0.015625)"/>
       <path id="DejaVuSans-20" transform="scale(0.015625)"/>
       <path id="DejaVuSans-28" d="M 1984 4856 
Q 1566 4138 1362 3434 
Q 1159 2731 1159 2009 
Q 1159 1288 1364 580 
Q 1569 -128 1984 -844 
L 1484 -844 
Q 1016 -109 783 600 
Q 550 1309 550 2009 
Q 550 2706 781 3412 
Q 1013 4119 1484 4856 
L 1984 4856 
z
" transform="scale(0.015625)"/>
       <path id="DejaVuSans-25" d="M 4653 2053 
Q 4381 2053 4226 1822 
Q 4072 1591 4072 1178 
Q 4072 772 4226 539 
Q 4381 306 4653 306 
Q 4919 306 5073 539 
Q 5228 772 5228 1178 
Q 5228 1588 5073 1820 
Q 4919 2053 4653 2053 
z
M 4653 2450 
Q 5147 2450 5437 2106 
Q 5728 1763 5728 1178 
Q 5728 594 5436 251 
Q 5144 -91 4653 -91 
Q 4153 -91 3862 251 
Q 3572 594 3572 1178 
Q 3572 1766 3864 2108 
Q 4156 2450 4653 2450 
z
M 1428 4353 
Q 1159 4353 1004 4120 
Q 850 3888 850 3481 
Q 850 3069 1003 2837 
Q 1156 2606 1428 2606 
Q 1700 2606 1854 2837 
Q 2009 3069 2009 3481 
Q 2009 3884 1853 4118 
Q 1697 4353 1428 4353 
z
M 4250 4750 
L 4750 4750 
L 1831 -91 
L 1331 -91 
L 4250 4750 
z
M 1428 4750 
Q 1922 4750 2215 4408 
Q 2509 4066 2509 3481 
Q 2509 2891 2217 2550 
Q 1925 2209 1428 2209 
Q 931 2209 642 2551 
Q 353 2894 353 3481 
Q 353 4063 643 4406 
Q 934 4750 1428 4750 
z
" transform="scale(0.015625)"/>
       <path id="DejaVuSans-29" d="M 513 4856 
L 1013 4856 
Q 1481 4119 1714 3412 
Q 1947 2706 1947 2009 
Q 1947 1309 1714 600 
Q 1481 -109 1013 -844 
L 513 -844 
Q 928 -128 1133 580 
Q 1338 1288 1338 2009 
Q 1338 2731 1133 3434 
Q 928 4138 513 4856 
z
" transform="scale(0.015625)"/>
      </defs>
      <use xlink:href="#DejaVuSans-43"/>
      <use xlink:href="#DejaVuSans-6c" x="69.824219"/>
      <use xlink:href="#DejaVuSans-6f" x="97.607422"/>
      <use xlink:href="#DejaVuSans-75" x="158.789062"/>
      <use xlink:href="#DejaVuSans-64" x="222.167969"/>
      <use xlink:href="#DejaVuSans-69" x="285.644531"/>
      <use xlink:href="#DejaVuSans-6e" x="313.427734"/>
      <use xlink:href="#DejaVuSans-65" x="376.806641"/>
      <use xlink:href="#DejaVuSans-73" x="438.330078"/>
      <use xlink:href="#DejaVuSans-73" x="490.429688"/>
      <use xlink:href="#DejaVuSans-20" x="542.529297"/>
      <use xlink:href="#DejaVuSans-28" x="574.316406"/>
      <use xlink:href="#DejaVuSans-25" x="613.330078"/>
      <use xlink:href="#DejaVuSans-29" x="708.349609"/>
     </g>
    </g>
   </g>
   <g id="line2d_13">
    <path d="M 164.233546 164.174166 
L 373.581818 80.078206 
L 69.218182 202.342183 
L 373.525663 80.100764 
" clip-path="url(#p95a55f473b)" style="fill: none; stroke: #ff0000; stroke-width: 1.5; stroke-linecap: square"/>
   </g>
   <g id="patch_3">
    <path d="M 54 252 
L 54 34.56 
" style="fill: none; stroke: #000000; stroke-width: 0.8; stroke-linejoin: miter; stroke-linecap: square"/>
   </g>
   <g id="patch_4">
    <path d="M 388.8 252 
L 388.8 34.56 
" style="fill: none; stroke: #000000; stroke-width: 0.8; stroke-linejoin: miter; stroke-linecap: square"/>
   </g>
   <g id="patch_5">
    <path d="M 54 252 
L 388.8 252 
" style="fill: none; stroke: #000000; stroke-width: 0.8; stroke-linejoin: miter; stroke-linecap: square"/>
   </g>
   <g id="patch_6">
    <path d="M 54 34.56 
L 388.8 34.56 
" style="fill: none; stroke: #000000; stroke-width: 0.8; stroke-linejoin: miter; stroke-linecap: square"/>
   </g>
   <g id="text_15">
    <!-- y=1.14x + 82.66 -->
    <g style="fill: #ff0000" transform="translate(68.095069 192.698182)scale(0.15 -0.15)">
     <defs>
      <path id="DejaVuSans-79" d="M 2059 -325 
Q 1816 -950 1584 -1140 
Q 1353 -1331 966 -1331 
L 506 -1331 
L 506 -850 
L 844 -850 
Q 1081 -850 1212 -737 
Q 1344 -625 1503 -206 
L 1606 56 
L 191 3500 
L 800 3500 
L 1894 763 
L 2988 3500 
L 3597 3500 
L 2059 -325 
z
" transform="scale(0.015625)"/>
      <path id="DejaVuSans-3d" d="M 678 2906 
L 4684 2906 
L 4684 2381 
L 678 2381 
L 678 2906 
z
M 678 1631 
L 4684 1631 
L 4684 1100 
L 678 1100 
L 678 1631 
z
" transform="scale(0.015625)"/>
      <path id="DejaVuSans-2e" d="M 684 794 
L 1344 794 
L 1344 0 
L 684 0 
L 684 794 
z
" transform="scale(0.015625)"/>
      <path id="DejaVuSans-78" d="M 3513 3500 
L 2247 1797 
L 3578 0 
L 2900 0 
L 1881 1375 
L 863 0 
L 184 0 
L 1544 1831 
L 300 3500 
L 978 3500 
L 1906 2253 
L 2834 3500 
L 3513 3500 
z
" transform="scale(0.015625)"/>
      <path id="DejaVuSans-2b" d="M 2944 4013 
L 2944 2272 
L 4684 2272 
L 4684 1741 
L 2944 1741 
L 2944 0 
L 2419 0 
L 2419 1741 
L 678 1741 
L 678 2272 
L 2419 2272 
L 2419 4013 
L 2944 4013 
z
" transform="scale(0.015625)"/>
     </defs>
     <use xlink:href="#DejaVuSans-79"/>
     <use xlink:href="#DejaVuSans-3d" x="59.179688"/>
     <use xlink:href="#DejaVuSans-31" x="142.96875"/>
     <use xlink:href="#DejaVuSans-2e" x="206.591797"/>
     <use xlink:href="#DejaVuSans-31" x="238.378906"/>
     <use xlink:href="#DejaVuSans-34" x="302.001953"/>
     <use xlink:href="#DejaVuSans-78" x="365.625"/>
     <use xlink:href="#DejaVuSans-20" x="424.804688"/>
     <use xlink:href="#DejaVuSans-2b" x="456.591797"/>
     <use xlink:href="#DejaVuSans-20" x="540.380859"/>
     <use xlink:href="#DejaVuSans-38" x="572.167969"/>
     <use xlink:href="#DejaVuSans-32" x="635.791016"/>
     <use xlink:href="#DejaVuSans-2e" x="699.414062"/>
     <use xlink:href="#DejaVuSans-36" x="731.201172"/>
     <use xlink:href="#DejaVuSans-36" x="794.824219"/>
    </g>
   </g>
   <g id="text_16">
    <!-- Southern Hemisphere Cloudiness % vs. Latitude (2/8/2022) -->
    <g transform="translate(43.336875 28.56)scale(0.12 -0.12)">
     <defs>
      <path id="DejaVuSans-53" d="M 3425 4513 
L 3425 3897 
Q 3066 4069 2747 4153 
Q 2428 4238 2131 4238 
Q 1616 4238 1336 4038 
Q 1056 3838 1056 3469 
Q 1056 3159 1242 3001 
Q 1428 2844 1947 2747 
L 2328 2669 
Q 3034 2534 3370 2195 
Q 3706 1856 3706 1288 
Q 3706 609 3251 259 
Q 2797 -91 1919 -91 
Q 1588 -91 1214 -16 
Q 841 59 441 206 
L 441 856 
Q 825 641 1194 531 
Q 1563 422 1919 422 
Q 2459 422 2753 634 
Q 3047 847 3047 1241 
Q 3047 1584 2836 1778 
Q 2625 1972 2144 2069 
L 1759 2144 
Q 1053 2284 737 2584 
Q 422 2884 422 3419 
Q 422 4038 858 4394 
Q 1294 4750 2059 4750 
Q 2388 4750 2728 4690 
Q 3069 4631 3425 4513 
z
" transform="scale(0.015625)"/>
      <path id="DejaVuSans-68" d="M 3513 2113 
L 3513 0 
L 2938 0 
L 2938 2094 
Q 2938 2591 2744 2837 
Q 2550 3084 2163 3084 
Q 1697 3084 1428 2787 
Q 1159 2491 1159 1978 
L 1159 0 
L 581 0 
L 581 4863 
L 1159 4863 
L 1159 2956 
Q 1366 3272 1645 3428 
Q 1925 3584 2291 3584 
Q 2894 3584 3203 3211 
Q 3513 2838 3513 2113 
z
" transform="scale(0.015625)"/>
      <path id="DejaVuSans-72" d="M 2631 2963 
Q 2534 3019 2420 3045 
Q 2306 3072 2169 3072 
Q 1681 3072 1420 2755 
Q 1159 2438 1159 1844 
L 1159 0 
L 581 0 
L 581 3500 
L 1159 3500 
L 1159 2956 
Q 1341 3275 1631 3429 
Q 1922 3584 2338 3584 
Q 2397 3584 2469 3576 
Q 2541 3569 2628 3553 
L 2631 2963 
z
" transform="scale(0.015625)"/>
      <path id="DejaVuSans-48" d="M 628 4666 
L 1259 4666 
L 1259 2753 
L 3553 2753 
L 3553 4666 
L 4184 4666 
L 4184 0 
L 3553 0 
L 3553 2222 
L 1259 2222 
L 1259 0 
L 628 0 
L 628 4666 
z
" transform="scale(0.015625)"/>
      <path id="DejaVuSans-6d" d="M 3328 2828 
Q 3544 3216 3844 3400 
Q 4144 3584 4550 3584 
Q 5097 3584 5394 3201 
Q 5691 2819 5691 2113 
L 5691 0 
L 5113 0 
L 5113 2094 
Q 5113 2597 4934 2840 
Q 4756 3084 4391 3084 
Q 3944 3084 3684 2787 
Q 3425 2491 3425 1978 
L 3425 0 
L 2847 0 
L 2847 2094 
Q 2847 2600 2669 2842 
Q 2491 3084 2119 3084 
Q 1678 3084 1418 2786 
Q 1159 2488 1159 1978 
L 1159 0 
L 581 0 
L 581 3500 
L 1159 3500 
L 1159 2956 
Q 1356 3278 1631 3431 
Q 1906 3584 2284 3584 
Q 2666 3584 2933 3390 
Q 3200 3197 3328 2828 
z
" transform="scale(0.015625)"/>
      <path id="DejaVuSans-70" d="M 1159 525 
L 1159 -1331 
L 581 -1331 
L 581 3500 
L 1159 3500 
L 1159 2969 
Q 1341 3281 1617 3432 
Q 1894 3584 2278 3584 
Q 2916 3584 3314 3078 
Q 3713 2572 3713 1747 
Q 3713 922 3314 415 
Q 2916 -91 2278 -91 
Q 1894 -91 1617 61 
Q 1341 213 1159 525 
z
M 3116 1747 
Q 3116 2381 2855 2742 
Q 2594 3103 2138 3103 
Q 1681 3103 1420 2742 
Q 1159 2381 1159 1747 
Q 1159 1113 1420 752 
Q 1681 391 2138 391 
Q 2594 391 2855 752 
Q 3116 1113 3116 1747 
z
" transform="scale(0.015625)"/>
      <path id="DejaVuSans-76" d="M 191 3500 
L 800 3500 
L 1894 563 
L 2988 3500 
L 3597 3500 
L 2284 0 
L 1503 0 
L 191 3500 
z
" transform="scale(0.015625)"/>
      <path id="DejaVuSans-2f" d="M 1625 4666 
L 2156 4666 
L 531 -594 
L 0 -594 
L 1625 4666 
z
" transform="scale(0.015625)"/>
     </defs>
     <use xlink:href="#DejaVuSans-53"/>
     <use xlink:href="#DejaVuSans-6f" x="63.476562"/>
     <use xlink:href="#DejaVuSans-75" x="124.658203"/>
     <use xlink:href="#DejaVuSans-74" x="188.037109"/>
     <use xlink:href="#DejaVuSans-68" x="227.246094"/>
     <use xlink:href="#DejaVuSans-65" x="290.625"/>
     <use xlink:href="#DejaVuSans-72" x="352.148438"/>
     <use xlink:href="#DejaVuSans-6e" x="391.511719"/>
     <use xlink:href="#DejaVuSans-20" x="454.890625"/>
     <use xlink:href="#DejaVuSans-48" x="486.677734"/>
     <use xlink:href="#DejaVuSans-65" x="561.873047"/>
     <use xlink:href="#DejaVuSans-6d" x="623.396484"/>
     <use xlink:href="#DejaVuSans-69" x="720.808594"/>
     <use xlink:href="#DejaVuSans-73" x="748.591797"/>
     <use xlink:href="#DejaVuSans-70" x="800.691406"/>
     <use xlink:href="#DejaVuSans-68" x="864.167969"/>
     <use xlink:href="#DejaVuSans-65" x="927.546875"/>
     <use xlink:href="#DejaVuSans-72" x="989.070312"/>
     <use xlink:href="#DejaVuSans-65" x="1027.933594"/>
     <use xlink:href="#DejaVuSans-20" x="1089.457031"/>
     <use xlink:href="#DejaVuSans-43" x="1121.244141"/>
     <use xlink:href="#DejaVuSans-6c" x="1191.068359"/>
     <use xlink:href="#DejaVuSans-6f" x="1218.851562"/>
     <use xlink:href="#DejaVuSans-75" x="1280.033203"/>
     <use xlink:href="#DejaVuSans-64" x="1343.412109"/>
     <use xlink:href="#DejaVuSans-69" x="1406.888672"/>
     <use xlink:href="#DejaVuSans-6e" x="1434.671875"/>
     <use xlink:href="#DejaVuSans-65" x="1498.050781"/>
     <use xlink:href="#DejaVuSans-73" x="1559.574219"/>
     <use xlink:href="#DejaVuSans-73" x="1611.673828"/>
     <use xlink:href="#DejaVuSans-20" x="1663.773438"/>
     <use xlink:href="#DejaVuSans-25" x="1695.560547"/>
     <use xlink:href="#DejaVuSans-20" x="1790.580078"/>
     <use xlink:href="#DejaVuSans-76" x="1822.367188"/>
     <use xlink:href="#DejaVuSans-73" x="1881.546875"/>
     <use xlink:href="#DejaVuSans-2e" x="1933.646484"/>
     <use xlink:href="#DejaVuSans-20" x="1965.433594"/>
     <use xlink:href="#DejaVuSans-4c" x="1997.220703"/>
     <use xlink:href="#DejaVuSans-61" x="2052.933594"/>
     <use xlink:href="#DejaVuSans-74" x="2114.212891"/>
     <use xlink:href="#DejaVuSans-69" x="2153.421875"/>
     <use xlink:href="#DejaVuSans-74" x="2181.205078"/>
     <use xlink:href="#DejaVuSans-75" x="2220.414062"/>
     <use xlink:href="#DejaVuSans-64" x="2283.792969"/>
     <use xlink:href="#DejaVuSans-65" x="2347.269531"/>
     <use xlink:href="#DejaVuSans-20" x="2408.792969"/>
     <use xlink:href="#DejaVuSans-28" x="2440.580078"/>
     <use xlink:href="#DejaVuSans-32" x="2479.59375"/>
     <use xlink:href="#DejaVuSans-2f" x="2543.216797"/>
     <use xlink:href="#DejaVuSans-38" x="2576.908203"/>
     <use xlink:href="#DejaVuSans-2f" x="2640.53125"/>
     <use xlink:href="#DejaVuSans-32" x="2674.222656"/>
     <use xlink:href="#DejaVuSans-30" x="2737.845703"/>
     <use xlink:href="#DejaVuSans-32" x="2801.46875"/>
     <use xlink:href="#DejaVuSans-32" x="2865.091797"/>
     <use xlink:href="#DejaVuSans-29" x="2928.714844"/>
    </g>
   </g>
  </g>
 </g>
 <defs>
  <clipPath id="p95a55f473b">
   <rect x="54" y="34.56" width="334.8" height="217.44"/>
  </clipPath>
 </defs>
</svg>
