<?xml version="1.0" encoding="utf-8" standalone="no"?>
<!DOCTYPE svg PUBLIC "-//W3C//DTD SVG 1.1//EN"
  "http://www.w3.org/Graphics/SVG/1.1/DTD/svg11.dtd">
<svg xmlns:xlink="http://www.w3.org/1999/xlink" width="432pt" height="288pt" viewBox="0 0 432 288" xmlns="http://www.w3.org/2000/svg" version="1.1">
 <metadata>
  <rdf:RDF xmlns:dc="http://purl.org/dc/elements/1.1/" xmlns:cc="http://creativecommons.org/ns#" xmlns:rdf="http://www.w3.org/1999/02/22-rdf-syntax-ns#">
   <cc:Work>
    <dc:type rdf:resource="http://purl.org/dc/dcmitype/StillImage"/>
    <dc:date>2022-02-14T09:12:41.866570</dc:date>
    <dc:format>image/svg+xml</dc:format>
    <dc:creator>
     <cc:Agent>
      <dc:title>Matplotlib v3.5.0, https://matplotlib.org/</dc:title>
     </cc:Agent>
    </dc:creator>
   </cc:Work>
  </rdf:RDF>
 </metadata>
 <defs>
  <style type="text/css">*{stroke-linejoin: round; stroke-linecap: butt}</style>
 </defs>
 <g id="figure_1">
  <g id="patch_1">
   <path d="M 0 288 
L 432 288 
L 432 0 
L 0 0 
L 0 288 
z
" style="fill: none"/>
  </g>
  <g id="axes_1">
   <g id="patch_2">
    <path d="M 54 252 
L 388.8 252 
L 388.8 34.56 
L 54 34.56 
z
" style="fill: #ffffff"/>
   </g>
   <g id="PathCollection_1">
    <defs>
     <path id="m6236eb7b83" d="M 0 3 
C 0.795609 3 1.55874 2.683901 2.12132 2.12132 
C 2.683901 1.55874 3 0.795609 3 0 
C 3 -0.795609 2.683901 -1.55874 2.12132 -2.12132 
C 1.55874 -2.683901 0.795609 -3 0 -3 
C -0.795609 -3 -1.55874 -2.683901 -2.12132 -2.12132 
C -2.683901 -1.55874 -3 -0.795609 -3 0 
C -3 0.795609 -2.683901 1.55874 -2.12132 2.12132 
C -1.55874 2.683901 -0.795609 3 0 3 
z
" style="stroke: #1f77b4"/>
    </defs>
    <g clip-path="url(#pfe33c6bc4d)">
     <use xlink:href="#m6236eb7b83" x="187.799239" y="103.983614" style="fill: #1f77b4; stroke: #1f77b4"/>
     <use xlink:href="#m6236eb7b83" x="246.335008" y="115.89161" style="fill: #1f77b4; stroke: #1f77b4"/>
     <use xlink:href="#m6236eb7b83" x="115.062815" y="70.641227" style="fill: #1f77b4; stroke: #1f77b4"/>
     <use xlink:href="#m6236eb7b83" x="135.860624" y="63.496429" style="fill: #1f77b4; stroke: #1f77b4"/>
     <use xlink:href="#m6236eb7b83" x="163.143771" y="92.075619" style="fill: #1f77b4; stroke: #1f77b4"/>
     <use xlink:href="#m6236eb7b83" x="263.890148" y="94.457218" style="fill: #1f77b4; stroke: #1f77b4"/>
     <use xlink:href="#m6236eb7b83" x="78.443016" y="144.4708" style="fill: #1f77b4; stroke: #1f77b4"/>
     <use xlink:href="#m6236eb7b83" x="256.118923" y="84.930821" style="fill: #1f77b4; stroke: #1f77b4"/>
     <use xlink:href="#m6236eb7b83" x="199.875386" y="84.930821" style="fill: #1f77b4; stroke: #1f77b4"/>
     <use xlink:href="#m6236eb7b83" x="261.877456" y="82.549222" style="fill: #1f77b4; stroke: #1f77b4"/>
     <use xlink:href="#m6236eb7b83" x="183.158867" y="144.4708" style="fill: #1f77b4; stroke: #1f77b4"/>
     <use xlink:href="#m6236eb7b83" x="283.457979" y="99.220416" style="fill: #1f77b4; stroke: #1f77b4"/>
     <use xlink:href="#m6236eb7b83" x="69.218182" y="170.66839" style="fill: #1f77b4; stroke: #1f77b4"/>
     <use xlink:href="#m6236eb7b83" x="117.355046" y="49.206835" style="fill: #1f77b4; stroke: #1f77b4"/>
     <use xlink:href="#m6236eb7b83" x="178.071231" y="132.562804" style="fill: #1f77b4; stroke: #1f77b4"/>
     <use xlink:href="#m6236eb7b83" x="296.428655" y="142.0892" style="fill: #1f77b4; stroke: #1f77b4"/>
     <use xlink:href="#m6236eb7b83" x="313.536531" y="108.746813" style="fill: #1f77b4; stroke: #1f77b4"/>
     <use xlink:href="#m6236eb7b83" x="136.419705" y="103.983614" style="fill: #1f77b4; stroke: #1f77b4"/>
     <use xlink:href="#m6236eb7b83" x="264.337412" y="87.312421" style="fill: #1f77b4; stroke: #1f77b4"/>
     <use xlink:href="#m6236eb7b83" x="263.219251" y="106.365214" style="fill: #1f77b4; stroke: #1f77b4"/>
     <use xlink:href="#m6236eb7b83" x="236.998357" y="125.418007" style="fill: #1f77b4; stroke: #1f77b4"/>
     <use xlink:href="#m6236eb7b83" x="290.614214" y="115.89161" style="fill: #1f77b4; stroke: #1f77b4"/>
     <use xlink:href="#m6236eb7b83" x="185.954272" y="115.89161" style="fill: #1f77b4; stroke: #1f77b4"/>
     <use xlink:href="#m6236eb7b83" x="182.543878" y="118.273209" style="fill: #1f77b4; stroke: #1f77b4"/>
     <use xlink:href="#m6236eb7b83" x="133.512484" y="151.615597" style="fill: #1f77b4; stroke: #1f77b4"/>
     <use xlink:href="#m6236eb7b83" x="182.320246" y="187.339584" style="fill: #1f77b4; stroke: #1f77b4"/>
     <use xlink:href="#m6236eb7b83" x="196.968165" y="218.300372" style="fill: #1f77b4; stroke: #1f77b4"/>
     <use xlink:href="#m6236eb7b83" x="190.986" y="94.457218" style="fill: #1f77b4; stroke: #1f77b4"/>
     <use xlink:href="#m6236eb7b83" x="372.240024" y="111.128412" style="fill: #1f77b4; stroke: #1f77b4"/>
     <use xlink:href="#m6236eb7b83" x="324.774057" y="113.510011" style="fill: #1f77b4; stroke: #1f77b4"/>
     <use xlink:href="#m6236eb7b83" x="320.804582" y="115.89161" style="fill: #1f77b4; stroke: #1f77b4"/>
     <use xlink:href="#m6236eb7b83" x="165.268279" y="113.510011" style="fill: #1f77b4; stroke: #1f77b4"/>
     <use xlink:href="#m6236eb7b83" x="257.069361" y="56.351632" style="fill: #1f77b4; stroke: #1f77b4"/>
     <use xlink:href="#m6236eb7b83" x="257.013453" y="56.351632" style="fill: #1f77b4; stroke: #1f77b4"/>
     <use xlink:href="#m6236eb7b83" x="161.634253" y="80.167623" style="fill: #1f77b4; stroke: #1f77b4"/>
     <use xlink:href="#m6236eb7b83" x="260.59157" y="82.549222" style="fill: #1f77b4; stroke: #1f77b4"/>
     <use xlink:href="#m6236eb7b83" x="187.18425" y="182.576386" style="fill: #1f77b4; stroke: #1f77b4"/>
     <use xlink:href="#m6236eb7b83" x="256.174831" y="75.404425" style="fill: #1f77b4; stroke: #1f77b4"/>
     <use xlink:href="#m6236eb7b83" x="187.46379" y="142.0892" style="fill: #1f77b4; stroke: #1f77b4"/>
     <use xlink:href="#m6236eb7b83" x="185.898364" y="189.721183" style="fill: #1f77b4; stroke: #1f77b4"/>
     <use xlink:href="#m6236eb7b83" x="227.438074" y="189.721183" style="fill: #1f77b4; stroke: #1f77b4"/>
     <use xlink:href="#m6236eb7b83" x="371.457311" y="65.878028" style="fill: #1f77b4; stroke: #1f77b4"/>
     <use xlink:href="#m6236eb7b83" x="204.012584" y="170.66839" style="fill: #1f77b4; stroke: #1f77b4"/>
     <use xlink:href="#m6236eb7b83" x="371.569127" y="106.365214" style="fill: #1f77b4; stroke: #1f77b4"/>
     <use xlink:href="#m6236eb7b83" x="250.08085" y="175.431588" style="fill: #1f77b4; stroke: #1f77b4"/>
     <use xlink:href="#m6236eb7b83" x="260.871111" y="82.549222" style="fill: #1f77b4; stroke: #1f77b4"/>
     <use xlink:href="#m6236eb7b83" x="120.76544" y="230.208368" style="fill: #1f77b4; stroke: #1f77b4"/>
     <use xlink:href="#m6236eb7b83" x="141.507341" y="125.418007" style="fill: #1f77b4; stroke: #1f77b4"/>
     <use xlink:href="#m6236eb7b83" x="182.823419" y="180.194786" style="fill: #1f77b4; stroke: #1f77b4"/>
     <use xlink:href="#m6236eb7b83" x="354.349436" y="84.930821" style="fill: #1f77b4; stroke: #1f77b4"/>
     <use xlink:href="#m6236eb7b83" x="318.735983" y="77.786024" style="fill: #1f77b4; stroke: #1f77b4"/>
     <use xlink:href="#m6236eb7b83" x="186.233812" y="108.746813" style="fill: #1f77b4; stroke: #1f77b4"/>
     <use xlink:href="#m6236eb7b83" x="301.795832" y="73.022826" style="fill: #1f77b4; stroke: #1f77b4"/>
     <use xlink:href="#m6236eb7b83" x="292.179641" y="201.629179" style="fill: #1f77b4; stroke: #1f77b4"/>
     <use xlink:href="#m6236eb7b83" x="343.894623" y="106.365214" style="fill: #1f77b4; stroke: #1f77b4"/>
     <use xlink:href="#m6236eb7b83" x="299.000427" y="118.273209" style="fill: #1f77b4; stroke: #1f77b4"/>
     <use xlink:href="#m6236eb7b83" x="257.348901" y="84.930821" style="fill: #1f77b4; stroke: #1f77b4"/>
     <use xlink:href="#m6236eb7b83" x="266.294195" y="73.022826" style="fill: #1f77b4; stroke: #1f77b4"/>
     <use xlink:href="#m6236eb7b83" x="236.551092" y="103.983614" style="fill: #1f77b4; stroke: #1f77b4"/>
     <use xlink:href="#m6236eb7b83" x="320.972306" y="73.022826" style="fill: #1f77b4; stroke: #1f77b4"/>
     <use xlink:href="#m6236eb7b83" x="127.362594" y="56.351632" style="fill: #1f77b4; stroke: #1f77b4"/>
     <use xlink:href="#m6236eb7b83" x="370.730506" y="80.167623" style="fill: #1f77b4; stroke: #1f77b4"/>
     <use xlink:href="#m6236eb7b83" x="243.371879" y="144.4708" style="fill: #1f77b4; stroke: #1f77b4"/>
     <use xlink:href="#m6236eb7b83" x="215.585559" y="137.326002" style="fill: #1f77b4; stroke: #1f77b4"/>
     <use xlink:href="#m6236eb7b83" x="343.223726" y="132.562804" style="fill: #1f77b4; stroke: #1f77b4"/>
     <use xlink:href="#m6236eb7b83" x="185.227466" y="113.510011" style="fill: #1f77b4; stroke: #1f77b4"/>
     <use xlink:href="#m6236eb7b83" x="251.869908" y="82.549222" style="fill: #1f77b4; stroke: #1f77b4"/>
     <use xlink:href="#m6236eb7b83" x="116.851874" y="75.404425" style="fill: #1f77b4; stroke: #1f77b4"/>
     <use xlink:href="#m6236eb7b83" x="295.813666" y="87.312421" style="fill: #1f77b4; stroke: #1f77b4"/>
     <use xlink:href="#m6236eb7b83" x="325.668586" y="58.733231" style="fill: #1f77b4; stroke: #1f77b4"/>
     <use xlink:href="#m6236eb7b83" x="308.113446" y="82.549222" style="fill: #1f77b4; stroke: #1f77b4"/>
     <use xlink:href="#m6236eb7b83" x="206.863897" y="177.813187" style="fill: #1f77b4; stroke: #1f77b4"/>
     <use xlink:href="#m6236eb7b83" x="231.463456" y="213.537174" style="fill: #1f77b4; stroke: #1f77b4"/>
     <use xlink:href="#m6236eb7b83" x="269.033692" y="56.351632" style="fill: #1f77b4; stroke: #1f77b4"/>
     <use xlink:href="#m6236eb7b83" x="247.173629" y="113.510011" style="fill: #1f77b4; stroke: #1f77b4"/>
     <use xlink:href="#m6236eb7b83" x="248.850872" y="80.167623" style="fill: #1f77b4; stroke: #1f77b4"/>
     <use xlink:href="#m6236eb7b83" x="260.535662" y="80.167623" style="fill: #1f77b4; stroke: #1f77b4"/>
     <use xlink:href="#m6236eb7b83" x="364.301075" y="84.930821" style="fill: #1f77b4; stroke: #1f77b4"/>
     <use xlink:href="#m6236eb7b83" x="234.482493" y="237.353165" style="fill: #1f77b4; stroke: #1f77b4"/>
     <use xlink:href="#m6236eb7b83" x="261.4861" y="82.549222" style="fill: #1f77b4; stroke: #1f77b4"/>
     <use xlink:href="#m6236eb7b83" x="181.425716" y="87.312421" style="fill: #1f77b4; stroke: #1f77b4"/>
     <use xlink:href="#m6236eb7b83" x="352.951733" y="153.997196" style="fill: #1f77b4; stroke: #1f77b4"/>
     <use xlink:href="#m6236eb7b83" x="294.192332" y="58.733231" style="fill: #1f77b4; stroke: #1f77b4"/>
     <use xlink:href="#m6236eb7b83" x="291.844192" y="75.404425" style="fill: #1f77b4; stroke: #1f77b4"/>
     <use xlink:href="#m6236eb7b83" x="337.185652" y="87.312421" style="fill: #1f77b4; stroke: #1f77b4"/>
     <use xlink:href="#m6236eb7b83" x="276.078111" y="142.0892" style="fill: #1f77b4; stroke: #1f77b4"/>
     <use xlink:href="#m6236eb7b83" x="254.609405" y="96.838817" style="fill: #1f77b4; stroke: #1f77b4"/>
     <use xlink:href="#m6236eb7b83" x="341.770116" y="92.075619" style="fill: #1f77b4; stroke: #1f77b4"/>
     <use xlink:href="#m6236eb7b83" x="164.094209" y="70.641227" style="fill: #1f77b4; stroke: #1f77b4"/>
     <use xlink:href="#m6236eb7b83" x="359.269347" y="146.852399" style="fill: #1f77b4; stroke: #1f77b4"/>
     <use xlink:href="#m6236eb7b83" x="191.041908" y="115.89161" style="fill: #1f77b4; stroke: #1f77b4"/>
     <use xlink:href="#m6236eb7b83" x="226.599452" y="111.128412" style="fill: #1f77b4; stroke: #1f77b4"/>
     <use xlink:href="#m6236eb7b83" x="339.477884" y="208.773976" style="fill: #1f77b4; stroke: #1f77b4"/>
     <use xlink:href="#m6236eb7b83" x="282.060277" y="118.273209" style="fill: #1f77b4; stroke: #1f77b4"/>
     <use xlink:href="#m6236eb7b83" x="333.216178" y="61.11483" style="fill: #1f77b4; stroke: #1f77b4"/>
     <use xlink:href="#m6236eb7b83" x="310.405678" y="63.496429" style="fill: #1f77b4; stroke: #1f77b4"/>
     <use xlink:href="#m6236eb7b83" x="249.969033" y="230.208368" style="fill: #1f77b4; stroke: #1f77b4"/>
     <use xlink:href="#m6236eb7b83" x="337.297468" y="134.944403" style="fill: #1f77b4; stroke: #1f77b4"/>
     <use xlink:href="#m6236eb7b83" x="372.910921" y="134.944403" style="fill: #1f77b4; stroke: #1f77b4"/>
     <use xlink:href="#m6236eb7b83" x="143.855481" y="84.930821" style="fill: #1f77b4; stroke: #1f77b4"/>
     <use xlink:href="#m6236eb7b83" x="346.522303" y="144.4708" style="fill: #1f77b4; stroke: #1f77b4"/>
     <use xlink:href="#m6236eb7b83" x="372.184116" y="80.167623" style="fill: #1f77b4; stroke: #1f77b4"/>
     <use xlink:href="#m6236eb7b83" x="264.784677" y="149.233998" style="fill: #1f77b4; stroke: #1f77b4"/>
     <use xlink:href="#m6236eb7b83" x="325.221321" y="130.181205" style="fill: #1f77b4; stroke: #1f77b4"/>
     <use xlink:href="#m6236eb7b83" x="214.187857" y="44.443636" style="fill: #1f77b4; stroke: #1f77b4"/>
     <use xlink:href="#m6236eb7b83" x="208.149783" y="127.799606" style="fill: #1f77b4; stroke: #1f77b4"/>
     <use xlink:href="#m6236eb7b83" x="308.392986" y="120.654808" style="fill: #1f77b4; stroke: #1f77b4"/>
     <use xlink:href="#m6236eb7b83" x="117.690495" y="61.11483" style="fill: #1f77b4; stroke: #1f77b4"/>
     <use xlink:href="#m6236eb7b83" x="119.144105" y="73.022826" style="fill: #1f77b4; stroke: #1f77b4"/>
     <use xlink:href="#m6236eb7b83" x="214.746937" y="70.641227" style="fill: #1f77b4; stroke: #1f77b4"/>
     <use xlink:href="#m6236eb7b83" x="240.40875" y="125.418007" style="fill: #1f77b4; stroke: #1f77b4"/>
     <use xlink:href="#m6236eb7b83" x="333.272086" y="75.404425" style="fill: #1f77b4; stroke: #1f77b4"/>
     <use xlink:href="#m6236eb7b83" x="121.659969" y="77.786024" style="fill: #1f77b4; stroke: #1f77b4"/>
     <use xlink:href="#m6236eb7b83" x="324.66224" y="68.259628" style="fill: #1f77b4; stroke: #1f77b4"/>
     <use xlink:href="#m6236eb7b83" x="280.550758" y="65.878028" style="fill: #1f77b4; stroke: #1f77b4"/>
     <use xlink:href="#m6236eb7b83" x="233.587963" y="115.89161" style="fill: #1f77b4; stroke: #1f77b4"/>
     <use xlink:href="#m6236eb7b83" x="334.33434" y="51.588434" style="fill: #1f77b4; stroke: #1f77b4"/>
     <use xlink:href="#m6236eb7b83" x="316.220119" y="106.365214" style="fill: #1f77b4; stroke: #1f77b4"/>
     <use xlink:href="#m6236eb7b83" x="206.081184" y="132.562804" style="fill: #1f77b4; stroke: #1f77b4"/>
     <use xlink:href="#m6236eb7b83" x="214.691029" y="106.365214" style="fill: #1f77b4; stroke: #1f77b4"/>
     <use xlink:href="#m6236eb7b83" x="265.958747" y="127.799606" style="fill: #1f77b4; stroke: #1f77b4"/>
     <use xlink:href="#m6236eb7b83" x="222.57407" y="187.339584" style="fill: #1f77b4; stroke: #1f77b4"/>
     <use xlink:href="#m6236eb7b83" x="357.256656" y="144.4708" style="fill: #1f77b4; stroke: #1f77b4"/>
     <use xlink:href="#m6236eb7b83" x="182.264338" y="80.167623" style="fill: #1f77b4; stroke: #1f77b4"/>
     <use xlink:href="#m6236eb7b83" x="262.212905" y="101.602015" style="fill: #1f77b4; stroke: #1f77b4"/>
     <use xlink:href="#m6236eb7b83" x="299.112244" y="70.641227" style="fill: #1f77b4; stroke: #1f77b4"/>
     <use xlink:href="#m6236eb7b83" x="170.300007" y="130.181205" style="fill: #1f77b4; stroke: #1f77b4"/>
     <use xlink:href="#m6236eb7b83" x="160.068826" y="208.773976" style="fill: #1f77b4; stroke: #1f77b4"/>
     <use xlink:href="#m6236eb7b83" x="359.269347" y="94.457218" style="fill: #1f77b4; stroke: #1f77b4"/>
     <use xlink:href="#m6236eb7b83" x="331.762568" y="142.0892" style="fill: #1f77b4; stroke: #1f77b4"/>
     <use xlink:href="#m6236eb7b83" x="319.295064" y="108.746813" style="fill: #1f77b4; stroke: #1f77b4"/>
     <use xlink:href="#m6236eb7b83" x="344.509612" y="142.0892" style="fill: #1f77b4; stroke: #1f77b4"/>
     <use xlink:href="#m6236eb7b83" x="350.435869" y="82.549222" style="fill: #1f77b4; stroke: #1f77b4"/>
     <use xlink:href="#m6236eb7b83" x="361.226131" y="89.69402" style="fill: #1f77b4; stroke: #1f77b4"/>
     <use xlink:href="#m6236eb7b83" x="305.709398" y="51.588434" style="fill: #1f77b4; stroke: #1f77b4"/>
     <use xlink:href="#m6236eb7b83" x="305.262133" y="139.707601" style="fill: #1f77b4; stroke: #1f77b4"/>
     <use xlink:href="#m6236eb7b83" x="368.885539" y="65.878028" style="fill: #1f77b4; stroke: #1f77b4"/>
     <use xlink:href="#m6236eb7b83" x="326.171759" y="158.760394" style="fill: #1f77b4; stroke: #1f77b4"/>
     <use xlink:href="#m6236eb7b83" x="356.418035" y="103.983614" style="fill: #1f77b4; stroke: #1f77b4"/>
     <use xlink:href="#m6236eb7b83" x="185.507007" y="123.036407" style="fill: #1f77b4; stroke: #1f77b4"/>
     <use xlink:href="#m6236eb7b83" x="252.093541" y="113.510011" style="fill: #1f77b4; stroke: #1f77b4"/>
     <use xlink:href="#m6236eb7b83" x="357.592105" y="101.602015" style="fill: #1f77b4; stroke: #1f77b4"/>
     <use xlink:href="#m6236eb7b83" x="347.808189" y="108.746813" style="fill: #1f77b4; stroke: #1f77b4"/>
     <use xlink:href="#m6236eb7b83" x="353.790355" y="127.799606" style="fill: #1f77b4; stroke: #1f77b4"/>
     <use xlink:href="#m6236eb7b83" x="327.849001" y="68.259628" style="fill: #1f77b4; stroke: #1f77b4"/>
     <use xlink:href="#m6236eb7b83" x="257.96389" y="220.681972" style="fill: #1f77b4; stroke: #1f77b4"/>
     <use xlink:href="#m6236eb7b83" x="326.73084" y="96.838817" style="fill: #1f77b4; stroke: #1f77b4"/>
     <use xlink:href="#m6236eb7b83" x="269.760497" y="115.89161" style="fill: #1f77b4; stroke: #1f77b4"/>
     <use xlink:href="#m6236eb7b83" x="334.781604" y="96.838817" style="fill: #1f77b4; stroke: #1f77b4"/>
     <use xlink:href="#m6236eb7b83" x="209.659301" y="223.063571" style="fill: #1f77b4; stroke: #1f77b4"/>
     <use xlink:href="#m6236eb7b83" x="215.417834" y="96.838817" style="fill: #1f77b4; stroke: #1f77b4"/>
     <use xlink:href="#m6236eb7b83" x="367.09648" y="144.4708" style="fill: #1f77b4; stroke: #1f77b4"/>
     <use xlink:href="#m6236eb7b83" x="261.989273" y="123.036407" style="fill: #1f77b4; stroke: #1f77b4"/>
     <use xlink:href="#m6236eb7b83" x="261.933365" y="115.89161" style="fill: #1f77b4; stroke: #1f77b4"/>
     <use xlink:href="#m6236eb7b83" x="234.147044" y="94.457218" style="fill: #1f77b4; stroke: #1f77b4"/>
     <use xlink:href="#m6236eb7b83" x="320.357317" y="73.022826" style="fill: #1f77b4; stroke: #1f77b4"/>
     <use xlink:href="#m6236eb7b83" x="326.563115" y="68.259628" style="fill: #1f77b4; stroke: #1f77b4"/>
     <use xlink:href="#m6236eb7b83" x="286.085659" y="182.576386" style="fill: #1f77b4; stroke: #1f77b4"/>
     <use xlink:href="#m6236eb7b83" x="259.417501" y="156.378795" style="fill: #1f77b4; stroke: #1f77b4"/>
     <use xlink:href="#m6236eb7b83" x="212.678338" y="242.116364" style="fill: #1f77b4; stroke: #1f77b4"/>
     <use xlink:href="#m6236eb7b83" x="359.437072" y="142.0892" style="fill: #1f77b4; stroke: #1f77b4"/>
     <use xlink:href="#m6236eb7b83" x="277.587629" y="96.838817" style="fill: #1f77b4; stroke: #1f77b4"/>
     <use xlink:href="#m6236eb7b83" x="178.015323" y="211.155575" style="fill: #1f77b4; stroke: #1f77b4"/>
     <use xlink:href="#m6236eb7b83" x="337.129744" y="68.259628" style="fill: #1f77b4; stroke: #1f77b4"/>
     <use xlink:href="#m6236eb7b83" x="276.581284" y="149.233998" style="fill: #1f77b4; stroke: #1f77b4"/>
     <use xlink:href="#m6236eb7b83" x="276.97264" y="127.799606" style="fill: #1f77b4; stroke: #1f77b4"/>
     <use xlink:href="#m6236eb7b83" x="242.197809" y="130.181205" style="fill: #1f77b4; stroke: #1f77b4"/>
     <use xlink:href="#m6236eb7b83" x="321.922744" y="189.721183" style="fill: #1f77b4; stroke: #1f77b4"/>
     <use xlink:href="#m6236eb7b83" x="262.604262" y="73.022826" style="fill: #1f77b4; stroke: #1f77b4"/>
     <use xlink:href="#m6236eb7b83" x="181.705257" y="80.167623" style="fill: #1f77b4; stroke: #1f77b4"/>
     <use xlink:href="#m6236eb7b83" x="179.357117" y="65.878028" style="fill: #1f77b4; stroke: #1f77b4"/>
     <use xlink:href="#m6236eb7b83" x="363.853811" y="94.457218" style="fill: #1f77b4; stroke: #1f77b4"/>
     <use xlink:href="#m6236eb7b83" x="311.020667" y="99.220416" style="fill: #1f77b4; stroke: #1f77b4"/>
     <use xlink:href="#m6236eb7b83" x="332.489373" y="49.206835" style="fill: #1f77b4; stroke: #1f77b4"/>
     <use xlink:href="#m6236eb7b83" x="265.120126" y="94.457218" style="fill: #1f77b4; stroke: #1f77b4"/>
     <use xlink:href="#m6236eb7b83" x="370.283241" y="94.457218" style="fill: #1f77b4; stroke: #1f77b4"/>
     <use xlink:href="#m6236eb7b83" x="366.816939" y="115.89161" style="fill: #1f77b4; stroke: #1f77b4"/>
     <use xlink:href="#m6236eb7b83" x="373.581818" y="103.983614" style="fill: #1f77b4; stroke: #1f77b4"/>
     <use xlink:href="#m6236eb7b83" x="145.532723" y="196.86598" style="fill: #1f77b4; stroke: #1f77b4"/>
     <use xlink:href="#m6236eb7b83" x="315.88467" y="61.11483" style="fill: #1f77b4; stroke: #1f77b4"/>
     <use xlink:href="#m6236eb7b83" x="260.032489" y="120.654808" style="fill: #1f77b4; stroke: #1f77b4"/>
     <use xlink:href="#m6236eb7b83" x="211.560176" y="149.233998" style="fill: #1f77b4; stroke: #1f77b4"/>
     <use xlink:href="#m6236eb7b83" x="264.896493" y="101.602015" style="fill: #1f77b4; stroke: #1f77b4"/>
     <use xlink:href="#m6236eb7b83" x="365.363329" y="65.878028" style="fill: #1f77b4; stroke: #1f77b4"/>
     <use xlink:href="#m6236eb7b83" x="370.506873" y="75.404425" style="fill: #1f77b4; stroke: #1f77b4"/>
    </g>
   </g>
   <g id="matplotlib.axis_1">
    <g id="xtick_1">
     <g id="line2d_1">
      <defs>
       <path id="m03d00d205b" d="M 0 0 
L 0 3.5 
" style="stroke: #000000; stroke-width: 0.8"/>
      </defs>
      <g>
       <use xlink:href="#m03d00d205b" x="96.054065" y="252" style="stroke: #000000; stroke-width: 0.8"/>
      </g>
     </g>
     <g id="text_1">
      <!-- −50 -->
      <g transform="translate(85.501721 266.598437)scale(0.1 -0.1)">
       <defs>
        <path id="DejaVuSans-2212" d="M 678 2272 
L 4684 2272 
L 4684 1741 
L 678 1741 
L 678 2272 
z
" transform="scale(0.015625)"/>
        <path id="DejaVuSans-35" d="M 691 4666 
L 3169 4666 
L 3169 4134 
L 1269 4134 
L 1269 2991 
Q 1406 3038 1543 3061 
Q 1681 3084 1819 3084 
Q 2600 3084 3056 2656 
Q 3513 2228 3513 1497 
Q 3513 744 3044 326 
Q 2575 -91 1722 -91 
Q 1428 -91 1123 -41 
Q 819 9 494 109 
L 494 744 
Q 775 591 1075 516 
Q 1375 441 1709 441 
Q 2250 441 2565 725 
Q 2881 1009 2881 1497 
Q 2881 1984 2565 2268 
Q 2250 2553 1709 2553 
Q 1456 2553 1204 2497 
Q 953 2441 691 2322 
L 691 4666 
z
" transform="scale(0.015625)"/>
        <path id="DejaVuSans-30" d="M 2034 4250 
Q 1547 4250 1301 3770 
Q 1056 3291 1056 2328 
Q 1056 1369 1301 889 
Q 1547 409 2034 409 
Q 2525 409 2770 889 
Q 3016 1369 3016 2328 
Q 3016 3291 2770 3770 
Q 2525 4250 2034 4250 
z
M 2034 4750 
Q 2819 4750 3233 4129 
Q 3647 3509 3647 2328 
Q 3647 1150 3233 529 
Q 2819 -91 2034 -91 
Q 1250 -91 836 529 
Q 422 1150 422 2328 
Q 422 3509 836 4129 
Q 1250 4750 2034 4750 
z
" transform="scale(0.015625)"/>
       </defs>
       <use xlink:href="#DejaVuSans-2212"/>
       <use xlink:href="#DejaVuSans-35" x="83.789062"/>
       <use xlink:href="#DejaVuSans-30" x="147.412109"/>
      </g>
     </g>
    </g>
    <g id="xtick_2">
     <g id="line2d_2">
      <g>
       <use xlink:href="#m03d00d205b" x="151.962153" y="252" style="stroke: #000000; stroke-width: 0.8"/>
      </g>
     </g>
     <g id="text_2">
      <!-- −40 -->
      <g transform="translate(141.40981 266.598437)scale(0.1 -0.1)">
       <defs>
        <path id="DejaVuSans-34" d="M 2419 4116 
L 825 1625 
L 2419 1625 
L 2419 4116 
z
M 2253 4666 
L 3047 4666 
L 3047 1625 
L 3713 1625 
L 3713 1100 
L 3047 1100 
L 3047 0 
L 2419 0 
L 2419 1100 
L 313 1100 
L 313 1709 
L 2253 4666 
z
" transform="scale(0.015625)"/>
       </defs>
       <use xlink:href="#DejaVuSans-2212"/>
       <use xlink:href="#DejaVuSans-34" x="83.789062"/>
       <use xlink:href="#DejaVuSans-30" x="147.412109"/>
      </g>
     </g>
    </g>
    <g id="xtick_3">
     <g id="line2d_3">
      <g>
       <use xlink:href="#m03d00d205b" x="207.870242" y="252" style="stroke: #000000; stroke-width: 0.8"/>
      </g>
     </g>
     <g id="text_3">
      <!-- −30 -->
      <g transform="translate(197.317899 266.598437)scale(0.1 -0.1)">
       <defs>
        <path id="DejaVuSans-33" d="M 2597 2516 
Q 3050 2419 3304 2112 
Q 3559 1806 3559 1356 
Q 3559 666 3084 287 
Q 2609 -91 1734 -91 
Q 1441 -91 1130 -33 
Q 819 25 488 141 
L 488 750 
Q 750 597 1062 519 
Q 1375 441 1716 441 
Q 2309 441 2620 675 
Q 2931 909 2931 1356 
Q 2931 1769 2642 2001 
Q 2353 2234 1838 2234 
L 1294 2234 
L 1294 2753 
L 1863 2753 
Q 2328 2753 2575 2939 
Q 2822 3125 2822 3475 
Q 2822 3834 2567 4026 
Q 2313 4219 1838 4219 
Q 1578 4219 1281 4162 
Q 984 4106 628 3988 
L 628 4550 
Q 988 4650 1302 4700 
Q 1616 4750 1894 4750 
Q 2613 4750 3031 4423 
Q 3450 4097 3450 3541 
Q 3450 3153 3228 2886 
Q 3006 2619 2597 2516 
z
" transform="scale(0.015625)"/>
       </defs>
       <use xlink:href="#DejaVuSans-2212"/>
       <use xlink:href="#DejaVuSans-33" x="83.789062"/>
       <use xlink:href="#DejaVuSans-30" x="147.412109"/>
      </g>
     </g>
    </g>
    <g id="xtick_4">
     <g id="line2d_4">
      <g>
       <use xlink:href="#m03d00d205b" x="263.778331" y="252" style="stroke: #000000; stroke-width: 0.8"/>
      </g>
     </g>
     <g id="text_4">
      <!-- −20 -->
      <g transform="translate(253.225988 266.598437)scale(0.1 -0.1)">
       <defs>
        <path id="DejaVuSans-32" d="M 1228 531 
L 3431 531 
L 3431 0 
L 469 0 
L 469 531 
Q 828 903 1448 1529 
Q 2069 2156 2228 2338 
Q 2531 2678 2651 2914 
Q 2772 3150 2772 3378 
Q 2772 3750 2511 3984 
Q 2250 4219 1831 4219 
Q 1534 4219 1204 4116 
Q 875 4013 500 3803 
L 500 4441 
Q 881 4594 1212 4672 
Q 1544 4750 1819 4750 
Q 2544 4750 2975 4387 
Q 3406 4025 3406 3419 
Q 3406 3131 3298 2873 
Q 3191 2616 2906 2266 
Q 2828 2175 2409 1742 
Q 1991 1309 1228 531 
z
" transform="scale(0.015625)"/>
       </defs>
       <use xlink:href="#DejaVuSans-2212"/>
       <use xlink:href="#DejaVuSans-32" x="83.789062"/>
       <use xlink:href="#DejaVuSans-30" x="147.412109"/>
      </g>
     </g>
    </g>
    <g id="xtick_5">
     <g id="line2d_5">
      <g>
       <use xlink:href="#m03d00d205b" x="319.68642" y="252" style="stroke: #000000; stroke-width: 0.8"/>
      </g>
     </g>
     <g id="text_5">
      <!-- −10 -->
      <g transform="translate(309.134077 266.598437)scale(0.1 -0.1)">
       <defs>
        <path id="DejaVuSans-31" d="M 794 531 
L 1825 531 
L 1825 4091 
L 703 3866 
L 703 4441 
L 1819 4666 
L 2450 4666 
L 2450 531 
L 3481 531 
L 3481 0 
L 794 0 
L 794 531 
z
" transform="scale(0.015625)"/>
       </defs>
       <use xlink:href="#DejaVuSans-2212"/>
       <use xlink:href="#DejaVuSans-31" x="83.789062"/>
       <use xlink:href="#DejaVuSans-30" x="147.412109"/>
      </g>
     </g>
    </g>
    <g id="xtick_6">
     <g id="line2d_6">
      <g>
       <use xlink:href="#m03d00d205b" x="375.594509" y="252" style="stroke: #000000; stroke-width: 0.8"/>
      </g>
     </g>
     <g id="text_6">
      <!-- 0 -->
      <g transform="translate(372.413259 266.598437)scale(0.1 -0.1)">
       <use xlink:href="#DejaVuSans-30"/>
      </g>
     </g>
    </g>
    <g id="text_7">
     <!-- Latitude -->
     <g transform="translate(200.821094 280.276563)scale(0.1 -0.1)">
      <defs>
       <path id="DejaVuSans-4c" d="M 628 4666 
L 1259 4666 
L 1259 531 
L 3531 531 
L 3531 0 
L 628 0 
L 628 4666 
z
" transform="scale(0.015625)"/>
       <path id="DejaVuSans-61" d="M 2194 1759 
Q 1497 1759 1228 1600 
Q 959 1441 959 1056 
Q 959 750 1161 570 
Q 1363 391 1709 391 
Q 2188 391 2477 730 
Q 2766 1069 2766 1631 
L 2766 1759 
L 2194 1759 
z
M 3341 1997 
L 3341 0 
L 2766 0 
L 2766 531 
Q 2569 213 2275 61 
Q 1981 -91 1556 -91 
Q 1019 -91 701 211 
Q 384 513 384 1019 
Q 384 1609 779 1909 
Q 1175 2209 1959 2209 
L 2766 2209 
L 2766 2266 
Q 2766 2663 2505 2880 
Q 2244 3097 1772 3097 
Q 1472 3097 1187 3025 
Q 903 2953 641 2809 
L 641 3341 
Q 956 3463 1253 3523 
Q 1550 3584 1831 3584 
Q 2591 3584 2966 3190 
Q 3341 2797 3341 1997 
z
" transform="scale(0.015625)"/>
       <path id="DejaVuSans-74" d="M 1172 4494 
L 1172 3500 
L 2356 3500 
L 2356 3053 
L 1172 3053 
L 1172 1153 
Q 1172 725 1289 603 
Q 1406 481 1766 481 
L 2356 481 
L 2356 0 
L 1766 0 
Q 1100 0 847 248 
Q 594 497 594 1153 
L 594 3053 
L 172 3053 
L 172 3500 
L 594 3500 
L 594 4494 
L 1172 4494 
z
" transform="scale(0.015625)"/>
       <path id="DejaVuSans-69" d="M 603 3500 
L 1178 3500 
L 1178 0 
L 603 0 
L 603 3500 
z
M 603 4863 
L 1178 4863 
L 1178 4134 
L 603 4134 
L 603 4863 
z
" transform="scale(0.015625)"/>
       <path id="DejaVuSans-75" d="M 544 1381 
L 544 3500 
L 1119 3500 
L 1119 1403 
Q 1119 906 1312 657 
Q 1506 409 1894 409 
Q 2359 409 2629 706 
Q 2900 1003 2900 1516 
L 2900 3500 
L 3475 3500 
L 3475 0 
L 2900 0 
L 2900 538 
Q 2691 219 2414 64 
Q 2138 -91 1772 -91 
Q 1169 -91 856 284 
Q 544 659 544 1381 
z
M 1991 3584 
L 1991 3584 
z
" transform="scale(0.015625)"/>
       <path id="DejaVuSans-64" d="M 2906 2969 
L 2906 4863 
L 3481 4863 
L 3481 0 
L 2906 0 
L 2906 525 
Q 2725 213 2448 61 
Q 2172 -91 1784 -91 
Q 1150 -91 751 415 
Q 353 922 353 1747 
Q 353 2572 751 3078 
Q 1150 3584 1784 3584 
Q 2172 3584 2448 3432 
Q 2725 3281 2906 2969 
z
M 947 1747 
Q 947 1113 1208 752 
Q 1469 391 1925 391 
Q 2381 391 2643 752 
Q 2906 1113 2906 1747 
Q 2906 2381 2643 2742 
Q 2381 3103 1925 3103 
Q 1469 3103 1208 2742 
Q 947 2381 947 1747 
z
" transform="scale(0.015625)"/>
       <path id="DejaVuSans-65" d="M 3597 1894 
L 3597 1613 
L 953 1613 
Q 991 1019 1311 708 
Q 1631 397 2203 397 
Q 2534 397 2845 478 
Q 3156 559 3463 722 
L 3463 178 
Q 3153 47 2828 -22 
Q 2503 -91 2169 -91 
Q 1331 -91 842 396 
Q 353 884 353 1716 
Q 353 2575 817 3079 
Q 1281 3584 2069 3584 
Q 2775 3584 3186 3129 
Q 3597 2675 3597 1894 
z
M 3022 2063 
Q 3016 2534 2758 2815 
Q 2500 3097 2075 3097 
Q 1594 3097 1305 2825 
Q 1016 2553 972 2059 
L 3022 2063 
z
" transform="scale(0.015625)"/>
      </defs>
      <use xlink:href="#DejaVuSans-4c"/>
      <use xlink:href="#DejaVuSans-61" x="55.712891"/>
      <use xlink:href="#DejaVuSans-74" x="116.992188"/>
      <use xlink:href="#DejaVuSans-69" x="156.201172"/>
      <use xlink:href="#DejaVuSans-74" x="183.984375"/>
      <use xlink:href="#DejaVuSans-75" x="223.193359"/>
      <use xlink:href="#DejaVuSans-64" x="286.572266"/>
      <use xlink:href="#DejaVuSans-65" x="350.048828"/>
     </g>
    </g>
   </g>
   <g id="matplotlib.axis_2">
    <g id="ytick_1">
     <g id="line2d_7">
      <defs>
       <path id="m9033c66505" d="M 0 0 
L -3.5 0 
" style="stroke: #000000; stroke-width: 0.8"/>
      </defs>
      <g>
       <use xlink:href="#m9033c66505" x="54" y="232.589967" style="stroke: #000000; stroke-width: 0.8"/>
      </g>
     </g>
     <g id="text_8">
      <!-- 20 -->
      <g transform="translate(34.275 236.389186)scale(0.1 -0.1)">
       <use xlink:href="#DejaVuSans-32"/>
       <use xlink:href="#DejaVuSans-30" x="63.623047"/>
      </g>
     </g>
    </g>
    <g id="ytick_2">
     <g id="line2d_8">
      <g>
       <use xlink:href="#m9033c66505" x="54" y="184.957985" style="stroke: #000000; stroke-width: 0.8"/>
      </g>
     </g>
     <g id="text_9">
      <!-- 40 -->
      <g transform="translate(34.275 188.757203)scale(0.1 -0.1)">
       <use xlink:href="#DejaVuSans-34"/>
       <use xlink:href="#DejaVuSans-30" x="63.623047"/>
      </g>
     </g>
    </g>
    <g id="ytick_3">
     <g id="line2d_9">
      <g>
       <use xlink:href="#m9033c66505" x="54" y="137.326002" style="stroke: #000000; stroke-width: 0.8"/>
      </g>
     </g>
     <g id="text_10">
      <!-- 60 -->
      <g transform="translate(34.275 141.125221)scale(0.1 -0.1)">
       <defs>
        <path id="DejaVuSans-36" d="M 2113 2584 
Q 1688 2584 1439 2293 
Q 1191 2003 1191 1497 
Q 1191 994 1439 701 
Q 1688 409 2113 409 
Q 2538 409 2786 701 
Q 3034 994 3034 1497 
Q 3034 2003 2786 2293 
Q 2538 2584 2113 2584 
z
M 3366 4563 
L 3366 3988 
Q 3128 4100 2886 4159 
Q 2644 4219 2406 4219 
Q 1781 4219 1451 3797 
Q 1122 3375 1075 2522 
Q 1259 2794 1537 2939 
Q 1816 3084 2150 3084 
Q 2853 3084 3261 2657 
Q 3669 2231 3669 1497 
Q 3669 778 3244 343 
Q 2819 -91 2113 -91 
Q 1303 -91 875 529 
Q 447 1150 447 2328 
Q 447 3434 972 4092 
Q 1497 4750 2381 4750 
Q 2619 4750 2861 4703 
Q 3103 4656 3366 4563 
z
" transform="scale(0.015625)"/>
       </defs>
       <use xlink:href="#DejaVuSans-36"/>
       <use xlink:href="#DejaVuSans-30" x="63.623047"/>
      </g>
     </g>
    </g>
    <g id="ytick_4">
     <g id="line2d_10">
      <g>
       <use xlink:href="#m9033c66505" x="54" y="89.69402" style="stroke: #000000; stroke-width: 0.8"/>
      </g>
     </g>
     <g id="text_11">
      <!-- 80 -->
      <g transform="translate(34.275 93.493238)scale(0.1 -0.1)">
       <defs>
        <path id="DejaVuSans-38" d="M 2034 2216 
Q 1584 2216 1326 1975 
Q 1069 1734 1069 1313 
Q 1069 891 1326 650 
Q 1584 409 2034 409 
Q 2484 409 2743 651 
Q 3003 894 3003 1313 
Q 3003 1734 2745 1975 
Q 2488 2216 2034 2216 
z
M 1403 2484 
Q 997 2584 770 2862 
Q 544 3141 544 3541 
Q 544 4100 942 4425 
Q 1341 4750 2034 4750 
Q 2731 4750 3128 4425 
Q 3525 4100 3525 3541 
Q 3525 3141 3298 2862 
Q 3072 2584 2669 2484 
Q 3125 2378 3379 2068 
Q 3634 1759 3634 1313 
Q 3634 634 3220 271 
Q 2806 -91 2034 -91 
Q 1263 -91 848 271 
Q 434 634 434 1313 
Q 434 1759 690 2068 
Q 947 2378 1403 2484 
z
M 1172 3481 
Q 1172 3119 1398 2916 
Q 1625 2713 2034 2713 
Q 2441 2713 2670 2916 
Q 2900 3119 2900 3481 
Q 2900 3844 2670 4047 
Q 2441 4250 2034 4250 
Q 1625 4250 1398 4047 
Q 1172 3844 1172 3481 
z
" transform="scale(0.015625)"/>
       </defs>
       <use xlink:href="#DejaVuSans-38"/>
       <use xlink:href="#DejaVuSans-30" x="63.623047"/>
      </g>
     </g>
    </g>
    <g id="ytick_5">
     <g id="line2d_11">
      <g>
       <use xlink:href="#m9033c66505" x="54" y="42.062037" style="stroke: #000000; stroke-width: 0.8"/>
      </g>
     </g>
     <g id="text_12">
      <!-- 100 -->
      <g transform="translate(27.9125 45.861256)scale(0.1 -0.1)">
       <use xlink:href="#DejaVuSans-31"/>
       <use xlink:href="#DejaVuSans-30" x="63.623047"/>
       <use xlink:href="#DejaVuSans-30" x="127.246094"/>
      </g>
     </g>
    </g>
    <g id="text_13">
     <!-- Humidity (%) -->
     <g transform="translate(21.832812 176.1925)rotate(-90)scale(0.1 -0.1)">
      <defs>
       <path id="DejaVuSans-48" d="M 628 4666 
L 1259 4666 
L 1259 2753 
L 3553 2753 
L 3553 4666 
L 4184 4666 
L 4184 0 
L 3553 0 
L 3553 2222 
L 1259 2222 
L 1259 0 
L 628 0 
L 628 4666 
z
" transform="scale(0.015625)"/>
       <path id="DejaVuSans-6d" d="M 3328 2828 
Q 3544 3216 3844 3400 
Q 4144 3584 4550 3584 
Q 5097 3584 5394 3201 
Q 5691 2819 5691 2113 
L 5691 0 
L 5113 0 
L 5113 2094 
Q 5113 2597 4934 2840 
Q 4756 3084 4391 3084 
Q 3944 3084 3684 2787 
Q 3425 2491 3425 1978 
L 3425 0 
L 2847 0 
L 2847 2094 
Q 2847 2600 2669 2842 
Q 2491 3084 2119 3084 
Q 1678 3084 1418 2786 
Q 1159 2488 1159 1978 
L 1159 0 
L 581 0 
L 581 3500 
L 1159 3500 
L 1159 2956 
Q 1356 3278 1631 3431 
Q 1906 3584 2284 3584 
Q 2666 3584 2933 3390 
Q 3200 3197 3328 2828 
z
" transform="scale(0.015625)"/>
       <path id="DejaVuSans-79" d="M 2059 -325 
Q 1816 -950 1584 -1140 
Q 1353 -1331 966 -1331 
L 506 -1331 
L 506 -850 
L 844 -850 
Q 1081 -850 1212 -737 
Q 1344 -625 1503 -206 
L 1606 56 
L 191 3500 
L 800 3500 
L 1894 763 
L 2988 3500 
L 3597 3500 
L 2059 -325 
z
" transform="scale(0.015625)"/>
       <path id="DejaVuSans-20" transform="scale(0.015625)"/>
       <path id="DejaVuSans-28" d="M 1984 4856 
Q 1566 4138 1362 3434 
Q 1159 2731 1159 2009 
Q 1159 1288 1364 580 
Q 1569 -128 1984 -844 
L 1484 -844 
Q 1016 -109 783 600 
Q 550 1309 550 2009 
Q 550 2706 781 3412 
Q 1013 4119 1484 4856 
L 1984 4856 
z
" transform="scale(0.015625)"/>
       <path id="DejaVuSans-25" d="M 4653 2053 
Q 4381 2053 4226 1822 
Q 4072 1591 4072 1178 
Q 4072 772 4226 539 
Q 4381 306 4653 306 
Q 4919 306 5073 539 
Q 5228 772 5228 1178 
Q 5228 1588 5073 1820 
Q 4919 2053 4653 2053 
z
M 4653 2450 
Q 5147 2450 5437 2106 
Q 5728 1763 5728 1178 
Q 5728 594 5436 251 
Q 5144 -91 4653 -91 
Q 4153 -91 3862 251 
Q 3572 594 3572 1178 
Q 3572 1766 3864 2108 
Q 4156 2450 4653 2450 
z
M 1428 4353 
Q 1159 4353 1004 4120 
Q 850 3888 850 3481 
Q 850 3069 1003 2837 
Q 1156 2606 1428 2606 
Q 1700 2606 1854 2837 
Q 2009 3069 2009 3481 
Q 2009 3884 1853 4118 
Q 1697 4353 1428 4353 
z
M 4250 4750 
L 4750 4750 
L 1831 -91 
L 1331 -91 
L 4250 4750 
z
M 1428 4750 
Q 1922 4750 2215 4408 
Q 2509 4066 2509 3481 
Q 2509 2891 2217 2550 
Q 1925 2209 1428 2209 
Q 931 2209 642 2551 
Q 353 2894 353 3481 
Q 353 4063 643 4406 
Q 934 4750 1428 4750 
z
" transform="scale(0.015625)"/>
       <path id="DejaVuSans-29" d="M 513 4856 
L 1013 4856 
Q 1481 4119 1714 3412 
Q 1947 2706 1947 2009 
Q 1947 1309 1714 600 
Q 1481 -109 1013 -844 
L 513 -844 
Q 928 -128 1133 580 
Q 1338 1288 1338 2009 
Q 1338 2731 1133 3434 
Q 928 4138 513 4856 
z
" transform="scale(0.015625)"/>
      </defs>
      <use xlink:href="#DejaVuSans-48"/>
      <use xlink:href="#DejaVuSans-75" x="75.195312"/>
      <use xlink:href="#DejaVuSans-6d" x="138.574219"/>
      <use xlink:href="#DejaVuSans-69" x="235.986328"/>
      <use xlink:href="#DejaVuSans-64" x="263.769531"/>
      <use xlink:href="#DejaVuSans-69" x="327.246094"/>
      <use xlink:href="#DejaVuSans-74" x="355.029297"/>
      <use xlink:href="#DejaVuSans-79" x="394.238281"/>
      <use xlink:href="#DejaVuSans-20" x="453.417969"/>
      <use xlink:href="#DejaVuSans-28" x="485.205078"/>
      <use xlink:href="#DejaVuSans-25" x="524.21875"/>
      <use xlink:href="#DejaVuSans-29" x="619.238281"/>
     </g>
    </g>
   </g>
   <g id="line2d_12">
    <path d="M 187.799239 121.799421 
L 373.581818 101.424626 
L 69.218182 134.804218 
L 370.506873 101.761856 
" clip-path="url(#pfe33c6bc4d)" style="fill: none; stroke: #ff0000; stroke-width: 1.5; stroke-linecap: square"/>
   </g>
   <g id="patch_3">
    <path d="M 54 252 
L 54 34.56 
" style="fill: none; stroke: #000000; stroke-width: 0.8; stroke-linejoin: miter; stroke-linecap: square"/>
   </g>
   <g id="patch_4">
    <path d="M 388.8 252 
L 388.8 34.56 
" style="fill: none; stroke: #000000; stroke-width: 0.8; stroke-linejoin: miter; stroke-linecap: square"/>
   </g>
   <g id="patch_5">
    <path d="M 54 252 
L 388.8 252 
" style="fill: none; stroke: #000000; stroke-width: 0.8; stroke-linejoin: miter; stroke-linecap: square"/>
   </g>
   <g id="patch_6">
    <path d="M 54 34.56 
L 388.8 34.56 
" style="fill: none; stroke: #000000; stroke-width: 0.8; stroke-linejoin: miter; stroke-linecap: square"/>
   </g>
   <g id="text_14">
    <!-- y=0.26x + 75.17 -->
    <g style="fill: #ff0000" transform="translate(235.824287 196.86598)scale(0.15 -0.15)">
     <defs>
      <path id="DejaVuSans-3d" d="M 678 2906 
L 4684 2906 
L 4684 2381 
L 678 2381 
L 678 2906 
z
M 678 1631 
L 4684 1631 
L 4684 1100 
L 678 1100 
L 678 1631 
z
" transform="scale(0.015625)"/>
      <path id="DejaVuSans-2e" d="M 684 794 
L 1344 794 
L 1344 0 
L 684 0 
L 684 794 
z
" transform="scale(0.015625)"/>
      <path id="DejaVuSans-78" d="M 3513 3500 
L 2247 1797 
L 3578 0 
L 2900 0 
L 1881 1375 
L 863 0 
L 184 0 
L 1544 1831 
L 300 3500 
L 978 3500 
L 1906 2253 
L 2834 3500 
L 3513 3500 
z
" transform="scale(0.015625)"/>
      <path id="DejaVuSans-2b" d="M 2944 4013 
L 2944 2272 
L 4684 2272 
L 4684 1741 
L 2944 1741 
L 2944 0 
L 2419 0 
L 2419 1741 
L 678 1741 
L 678 2272 
L 2419 2272 
L 2419 4013 
L 2944 4013 
z
" transform="scale(0.015625)"/>
      <path id="DejaVuSans-37" d="M 525 4666 
L 3525 4666 
L 3525 4397 
L 1831 0 
L 1172 0 
L 2766 4134 
L 525 4134 
L 525 4666 
z
" transform="scale(0.015625)"/>
     </defs>
     <use xlink:href="#DejaVuSans-79"/>
     <use xlink:href="#DejaVuSans-3d" x="59.179688"/>
     <use xlink:href="#DejaVuSans-30" x="142.96875"/>
     <use xlink:href="#DejaVuSans-2e" x="206.591797"/>
     <use xlink:href="#DejaVuSans-32" x="238.378906"/>
     <use xlink:href="#DejaVuSans-36" x="302.001953"/>
     <use xlink:href="#DejaVuSans-78" x="365.625"/>
     <use xlink:href="#DejaVuSans-20" x="424.804688"/>
     <use xlink:href="#DejaVuSans-2b" x="456.591797"/>
     <use xlink:href="#DejaVuSans-20" x="540.380859"/>
     <use xlink:href="#DejaVuSans-37" x="572.167969"/>
     <use xlink:href="#DejaVuSans-35" x="635.791016"/>
     <use xlink:href="#DejaVuSans-2e" x="699.414062"/>
     <use xlink:href="#DejaVuSans-31" x="731.201172"/>
     <use xlink:href="#DejaVuSans-37" x="794.824219"/>
    </g>
   </g>
   <g id="text_15">
    <!-- Southern Hemisphere Humidity % vs. Latitude (2/8/2022) -->
    <g transform="translate(48.683438 28.56)scale(0.12 -0.12)">
     <defs>
      <path id="DejaVuSans-53" d="M 3425 4513 
L 3425 3897 
Q 3066 4069 2747 4153 
Q 2428 4238 2131 4238 
Q 1616 4238 1336 4038 
Q 1056 3838 1056 3469 
Q 1056 3159 1242 3001 
Q 1428 2844 1947 2747 
L 2328 2669 
Q 3034 2534 3370 2195 
Q 3706 1856 3706 1288 
Q 3706 609 3251 259 
Q 2797 -91 1919 -91 
Q 1588 -91 1214 -16 
Q 841 59 441 206 
L 441 856 
Q 825 641 1194 531 
Q 1563 422 1919 422 
Q 2459 422 2753 634 
Q 3047 847 3047 1241 
Q 3047 1584 2836 1778 
Q 2625 1972 2144 2069 
L 1759 2144 
Q 1053 2284 737 2584 
Q 422 2884 422 3419 
Q 422 4038 858 4394 
Q 1294 4750 2059 4750 
Q 2388 4750 2728 4690 
Q 3069 4631 3425 4513 
z
" transform="scale(0.015625)"/>
      <path id="DejaVuSans-6f" d="M 1959 3097 
Q 1497 3097 1228 2736 
Q 959 2375 959 1747 
Q 959 1119 1226 758 
Q 1494 397 1959 397 
Q 2419 397 2687 759 
Q 2956 1122 2956 1747 
Q 2956 2369 2687 2733 
Q 2419 3097 1959 3097 
z
M 1959 3584 
Q 2709 3584 3137 3096 
Q 3566 2609 3566 1747 
Q 3566 888 3137 398 
Q 2709 -91 1959 -91 
Q 1206 -91 779 398 
Q 353 888 353 1747 
Q 353 2609 779 3096 
Q 1206 3584 1959 3584 
z
" transform="scale(0.015625)"/>
      <path id="DejaVuSans-68" d="M 3513 2113 
L 3513 0 
L 2938 0 
L 2938 2094 
Q 2938 2591 2744 2837 
Q 2550 3084 2163 3084 
Q 1697 3084 1428 2787 
Q 1159 2491 1159 1978 
L 1159 0 
L 581 0 
L 581 4863 
L 1159 4863 
L 1159 2956 
Q 1366 3272 1645 3428 
Q 1925 3584 2291 3584 
Q 2894 3584 3203 3211 
Q 3513 2838 3513 2113 
z
" transform="scale(0.015625)"/>
      <path id="DejaVuSans-72" d="M 2631 2963 
Q 2534 3019 2420 3045 
Q 2306 3072 2169 3072 
Q 1681 3072 1420 2755 
Q 1159 2438 1159 1844 
L 1159 0 
L 581 0 
L 581 3500 
L 1159 3500 
L 1159 2956 
Q 1341 3275 1631 3429 
Q 1922 3584 2338 3584 
Q 2397 3584 2469 3576 
Q 2541 3569 2628 3553 
L 2631 2963 
z
" transform="scale(0.015625)"/>
      <path id="DejaVuSans-6e" d="M 3513 2113 
L 3513 0 
L 2938 0 
L 2938 2094 
Q 2938 2591 2744 2837 
Q 2550 3084 2163 3084 
Q 1697 3084 1428 2787 
Q 1159 2491 1159 1978 
L 1159 0 
L 581 0 
L 581 3500 
L 1159 3500 
L 1159 2956 
Q 1366 3272 1645 3428 
Q 1925 3584 2291 3584 
Q 2894 3584 3203 3211 
Q 3513 2838 3513 2113 
z
" transform="scale(0.015625)"/>
      <path id="DejaVuSans-73" d="M 2834 3397 
L 2834 2853 
Q 2591 2978 2328 3040 
Q 2066 3103 1784 3103 
Q 1356 3103 1142 2972 
Q 928 2841 928 2578 
Q 928 2378 1081 2264 
Q 1234 2150 1697 2047 
L 1894 2003 
Q 2506 1872 2764 1633 
Q 3022 1394 3022 966 
Q 3022 478 2636 193 
Q 2250 -91 1575 -91 
Q 1294 -91 989 -36 
Q 684 19 347 128 
L 347 722 
Q 666 556 975 473 
Q 1284 391 1588 391 
Q 1994 391 2212 530 
Q 2431 669 2431 922 
Q 2431 1156 2273 1281 
Q 2116 1406 1581 1522 
L 1381 1569 
Q 847 1681 609 1914 
Q 372 2147 372 2553 
Q 372 3047 722 3315 
Q 1072 3584 1716 3584 
Q 2034 3584 2315 3537 
Q 2597 3491 2834 3397 
z
" transform="scale(0.015625)"/>
      <path id="DejaVuSans-70" d="M 1159 525 
L 1159 -1331 
L 581 -1331 
L 581 3500 
L 1159 3500 
L 1159 2969 
Q 1341 3281 1617 3432 
Q 1894 3584 2278 3584 
Q 2916 3584 3314 3078 
Q 3713 2572 3713 1747 
Q 3713 922 3314 415 
Q 2916 -91 2278 -91 
Q 1894 -91 1617 61 
Q 1341 213 1159 525 
z
M 3116 1747 
Q 3116 2381 2855 2742 
Q 2594 3103 2138 3103 
Q 1681 3103 1420 2742 
Q 1159 2381 1159 1747 
Q 1159 1113 1420 752 
Q 1681 391 2138 391 
Q 2594 391 2855 752 
Q 3116 1113 3116 1747 
z
" transform="scale(0.015625)"/>
      <path id="DejaVuSans-76" d="M 191 3500 
L 800 3500 
L 1894 563 
L 2988 3500 
L 3597 3500 
L 2284 0 
L 1503 0 
L 191 3500 
z
" transform="scale(0.015625)"/>
      <path id="DejaVuSans-2f" d="M 1625 4666 
L 2156 4666 
L 531 -594 
L 0 -594 
L 1625 4666 
z
" transform="scale(0.015625)"/>
     </defs>
     <use xlink:href="#DejaVuSans-53"/>
     <use xlink:href="#DejaVuSans-6f" x="63.476562"/>
     <use xlink:href="#DejaVuSans-75" x="124.658203"/>
     <use xlink:href="#DejaVuSans-74" x="188.037109"/>
     <use xlink:href="#DejaVuSans-68" x="227.246094"/>
     <use xlink:href="#DejaVuSans-65" x="290.625"/>
     <use xlink:href="#DejaVuSans-72" x="352.148438"/>
     <use xlink:href="#DejaVuSans-6e" x="391.511719"/>
     <use xlink:href="#DejaVuSans-20" x="454.890625"/>
     <use xlink:href="#DejaVuSans-48" x="486.677734"/>
     <use xlink:href="#DejaVuSans-65" x="561.873047"/>
     <use xlink:href="#DejaVuSans-6d" x="623.396484"/>
     <use xlink:href="#DejaVuSans-69" x="720.808594"/>
     <use xlink:href="#DejaVuSans-73" x="748.591797"/>
     <use xlink:href="#DejaVuSans-70" x="800.691406"/>
     <use xlink:href="#DejaVuSans-68" x="864.167969"/>
     <use xlink:href="#DejaVuSans-65" x="927.546875"/>
     <use xlink:href="#DejaVuSans-72" x="989.070312"/>
     <use xlink:href="#DejaVuSans-65" x="1027.933594"/>
     <use xlink:href="#DejaVuSans-20" x="1089.457031"/>
     <use xlink:href="#DejaVuSans-48" x="1121.244141"/>
     <use xlink:href="#DejaVuSans-75" x="1196.439453"/>
     <use xlink:href="#DejaVuSans-6d" x="1259.818359"/>
     <use xlink:href="#DejaVuSans-69" x="1357.230469"/>
     <use xlink:href="#DejaVuSans-64" x="1385.013672"/>
     <use xlink:href="#DejaVuSans-69" x="1448.490234"/>
     <use xlink:href="#DejaVuSans-74" x="1476.273438"/>
     <use xlink:href="#DejaVuSans-79" x="1515.482422"/>
     <use xlink:href="#DejaVuSans-20" x="1574.662109"/>
     <use xlink:href="#DejaVuSans-25" x="1606.449219"/>
     <use xlink:href="#DejaVuSans-20" x="1701.46875"/>
     <use xlink:href="#DejaVuSans-76" x="1733.255859"/>
     <use xlink:href="#DejaVuSans-73" x="1792.435547"/>
     <use xlink:href="#DejaVuSans-2e" x="1844.535156"/>
     <use xlink:href="#DejaVuSans-20" x="1876.322266"/>
     <use xlink:href="#DejaVuSans-4c" x="1908.109375"/>
     <use xlink:href="#DejaVuSans-61" x="1963.822266"/>
     <use xlink:href="#DejaVuSans-74" x="2025.101562"/>
     <use xlink:href="#DejaVuSans-69" x="2064.310547"/>
     <use xlink:href="#DejaVuSans-74" x="2092.09375"/>
     <use xlink:href="#DejaVuSans-75" x="2131.302734"/>
     <use xlink:href="#DejaVuSans-64" x="2194.681641"/>
     <use xlink:href="#DejaVuSans-65" x="2258.158203"/>
     <use xlink:href="#DejaVuSans-20" x="2319.681641"/>
     <use xlink:href="#DejaVuSans-28" x="2351.46875"/>
     <use xlink:href="#DejaVuSans-32" x="2390.482422"/>
     <use xlink:href="#DejaVuSans-2f" x="2454.105469"/>
     <use xlink:href="#DejaVuSans-38" x="2487.796875"/>
     <use xlink:href="#DejaVuSans-2f" x="2551.419922"/>
     <use xlink:href="#DejaVuSans-32" x="2585.111328"/>
     <use xlink:href="#DejaVuSans-30" x="2648.734375"/>
     <use xlink:href="#DejaVuSans-32" x="2712.357422"/>
     <use xlink:href="#DejaVuSans-32" x="2775.980469"/>
     <use xlink:href="#DejaVuSans-29" x="2839.603516"/>
    </g>
   </g>
  </g>
 </g>
 <defs>
  <clipPath id="pfe33c6bc4d">
   <rect x="54" y="34.56" width="334.8" height="217.44"/>
  </clipPath>
 </defs>
</svg>
