<?xml version="1.0" encoding="utf-8" standalone="no"?>
<!DOCTYPE svg PUBLIC "-//W3C//DTD SVG 1.1//EN"
  "http://www.w3.org/Graphics/SVG/1.1/DTD/svg11.dtd">
<svg xmlns:xlink="http://www.w3.org/1999/xlink" width="432pt" height="288pt" viewBox="0 0 432 288" xmlns="http://www.w3.org/2000/svg" version="1.1">
 <metadata>
  <rdf:RDF xmlns:dc="http://purl.org/dc/elements/1.1/" xmlns:cc="http://creativecommons.org/ns#" xmlns:rdf="http://www.w3.org/1999/02/22-rdf-syntax-ns#">
   <cc:Work>
    <dc:type rdf:resource="http://purl.org/dc/dcmitype/StillImage"/>
    <dc:date>2022-02-14T09:13:04.942308</dc:date>
    <dc:format>image/svg+xml</dc:format>
    <dc:creator>
     <cc:Agent>
      <dc:title>Matplotlib v3.5.0, https://matplotlib.org/</dc:title>
     </cc:Agent>
    </dc:creator>
   </cc:Work>
  </rdf:RDF>
 </metadata>
 <defs>
  <style type="text/css">*{stroke-linejoin: round; stroke-linecap: butt}</style>
 </defs>
 <g id="figure_1">
  <g id="patch_1">
   <path d="M 0 288 
L 432 288 
L 432 0 
L 0 0 
L 0 288 
z
" style="fill: none"/>
  </g>
  <g id="axes_1">
   <g id="patch_2">
    <path d="M 54 252 
L 388.8 252 
L 388.8 34.56 
L 54 34.56 
z
" style="fill: #ffffff"/>
   </g>
   <g id="PathCollection_1">
    <defs>
     <path id="m6cea7f65bf" d="M 0 3 
C 0.795609 3 1.55874 2.683901 2.12132 2.12132 
C 2.683901 1.55874 3 0.795609 3 0 
C 3 -0.795609 2.683901 -1.55874 2.12132 -2.12132 
C 1.55874 -2.683901 0.795609 -3 0 -3 
C -0.795609 -3 -1.55874 -2.683901 -2.12132 -2.12132 
C -2.683901 -1.55874 -3 -0.795609 -3 0 
C -3 0.795609 -2.683901 1.55874 -2.12132 2.12132 
C -1.55874 2.683901 -0.795609 3 0 3 
z
" style="stroke: #1f77b4"/>
    </defs>
    <g clip-path="url(#p2b75c78c2d)">
     <use xlink:href="#m6cea7f65bf" x="187.799239" y="81.18364" style="fill: #1f77b4; stroke: #1f77b4"/>
     <use xlink:href="#m6cea7f65bf" x="246.335008" y="169.45828" style="fill: #1f77b4; stroke: #1f77b4"/>
     <use xlink:href="#m6cea7f65bf" x="115.062815" y="182.855642" style="fill: #1f77b4; stroke: #1f77b4"/>
     <use xlink:href="#m6cea7f65bf" x="135.860624" y="199.047545" style="fill: #1f77b4; stroke: #1f77b4"/>
     <use xlink:href="#m6cea7f65bf" x="163.143771" y="170.526781" style="fill: #1f77b4; stroke: #1f77b4"/>
     <use xlink:href="#m6cea7f65bf" x="263.890148" y="164.115774" style="fill: #1f77b4; stroke: #1f77b4"/>
     <use xlink:href="#m6cea7f65bf" x="78.443016" y="151.786914" style="fill: #1f77b4; stroke: #1f77b4"/>
     <use xlink:href="#m6cea7f65bf" x="256.118923" y="158.444498" style="fill: #1f77b4; stroke: #1f77b4"/>
     <use xlink:href="#m6cea7f65bf" x="199.875386" y="193.705039" style="fill: #1f77b4; stroke: #1f77b4"/>
     <use xlink:href="#m6cea7f65bf" x="261.877456" y="151.786914" style="fill: #1f77b4; stroke: #1f77b4"/>
     <use xlink:href="#m6cea7f65bf" x="183.158867" y="44.443636" style="fill: #1f77b4; stroke: #1f77b4"/>
     <use xlink:href="#m6cea7f65bf" x="283.457979" y="109.704404" style="fill: #1f77b4; stroke: #1f77b4"/>
     <use xlink:href="#m6cea7f65bf" x="69.218182" y="170.526781" style="fill: #1f77b4; stroke: #1f77b4"/>
     <use xlink:href="#m6cea7f65bf" x="117.355046" y="238.58209" style="fill: #1f77b4; stroke: #1f77b4"/>
     <use xlink:href="#m6cea7f65bf" x="178.071231" y="203.814704" style="fill: #1f77b4; stroke: #1f77b4"/>
     <use xlink:href="#m6cea7f65bf" x="296.428655" y="229.787503" style="fill: #1f77b4; stroke: #1f77b4"/>
     <use xlink:href="#m6cea7f65bf" x="313.536531" y="170.526781" style="fill: #1f77b4; stroke: #1f77b4"/>
     <use xlink:href="#m6cea7f65bf" x="136.419705" y="237.267012" style="fill: #1f77b4; stroke: #1f77b4"/>
     <use xlink:href="#m6cea7f65bf" x="264.337412" y="206.033899" style="fill: #1f77b4; stroke: #1f77b4"/>
     <use xlink:href="#m6cea7f65bf" x="263.219251" y="155.321187" style="fill: #1f77b4; stroke: #1f77b4"/>
     <use xlink:href="#m6cea7f65bf" x="236.998357" y="211.54079" style="fill: #1f77b4; stroke: #1f77b4"/>
     <use xlink:href="#m6cea7f65bf" x="290.614214" y="126.060692" style="fill: #1f77b4; stroke: #1f77b4"/>
     <use xlink:href="#m6cea7f65bf" x="185.954272" y="83.813797" style="fill: #1f77b4; stroke: #1f77b4"/>
     <use xlink:href="#m6cea7f65bf" x="182.543878" y="45.512138" style="fill: #1f77b4; stroke: #1f77b4"/>
     <use xlink:href="#m6cea7f65bf" x="133.512484" y="138.964899" style="fill: #1f77b4; stroke: #1f77b4"/>
     <use xlink:href="#m6cea7f65bf" x="182.320246" y="213.431215" style="fill: #1f77b4; stroke: #1f77b4"/>
     <use xlink:href="#m6cea7f65bf" x="196.968165" y="137.074474" style="fill: #1f77b4; stroke: #1f77b4"/>
     <use xlink:href="#m6cea7f65bf" x="190.986" y="144.060828" style="fill: #1f77b4; stroke: #1f77b4"/>
     <use xlink:href="#m6cea7f65bf" x="372.240024" y="141.512863" style="fill: #1f77b4; stroke: #1f77b4"/>
     <use xlink:href="#m6cea7f65bf" x="324.774057" y="181.211794" style="fill: #1f77b4; stroke: #1f77b4"/>
     <use xlink:href="#m6cea7f65bf" x="320.804582" y="99.019391" style="fill: #1f77b4; stroke: #1f77b4"/>
     <use xlink:href="#m6cea7f65bf" x="165.268279" y="199.951661" style="fill: #1f77b4; stroke: #1f77b4"/>
     <use xlink:href="#m6cea7f65bf" x="257.069361" y="170.526781" style="fill: #1f77b4; stroke: #1f77b4"/>
     <use xlink:href="#m6cea7f65bf" x="257.013453" y="227.403924" style="fill: #1f77b4; stroke: #1f77b4"/>
     <use xlink:href="#m6cea7f65bf" x="161.634253" y="168.554164" style="fill: #1f77b4; stroke: #1f77b4"/>
     <use xlink:href="#m6cea7f65bf" x="260.59157" y="218.938106" style="fill: #1f77b4; stroke: #1f77b4"/>
     <use xlink:href="#m6cea7f65bf" x="187.18425" y="131.238813" style="fill: #1f77b4; stroke: #1f77b4"/>
     <use xlink:href="#m6cea7f65bf" x="256.174831" y="145.211521" style="fill: #1f77b4; stroke: #1f77b4"/>
     <use xlink:href="#m6cea7f65bf" x="187.46379" y="114.471563" style="fill: #1f77b4; stroke: #1f77b4"/>
     <use xlink:href="#m6cea7f65bf" x="185.898364" y="160.252731" style="fill: #1f77b4; stroke: #1f77b4"/>
     <use xlink:href="#m6cea7f65bf" x="227.438074" y="123.512727" style="fill: #1f77b4; stroke: #1f77b4"/>
     <use xlink:href="#m6cea7f65bf" x="371.457311" y="201.595509" style="fill: #1f77b4; stroke: #1f77b4"/>
     <use xlink:href="#m6cea7f65bf" x="204.012584" y="192.225576" style="fill: #1f77b4; stroke: #1f77b4"/>
     <use xlink:href="#m6cea7f65bf" x="371.569127" y="155.649957" style="fill: #1f77b4; stroke: #1f77b4"/>
     <use xlink:href="#m6cea7f65bf" x="250.08085" y="195.020117" style="fill: #1f77b4; stroke: #1f77b4"/>
     <use xlink:href="#m6cea7f65bf" x="260.871111" y="151.786914" style="fill: #1f77b4; stroke: #1f77b4"/>
     <use xlink:href="#m6cea7f65bf" x="120.76544" y="180.143292" style="fill: #1f77b4; stroke: #1f77b4"/>
     <use xlink:href="#m6cea7f65bf" x="141.507341" y="224.609382" style="fill: #1f77b4; stroke: #1f77b4"/>
     <use xlink:href="#m6cea7f65bf" x="182.823419" y="122.608611" style="fill: #1f77b4; stroke: #1f77b4"/>
     <use xlink:href="#m6cea7f65bf" x="354.349436" y="221.650455" style="fill: #1f77b4; stroke: #1f77b4"/>
     <use xlink:href="#m6cea7f65bf" x="318.735983" y="173.650093" style="fill: #1f77b4; stroke: #1f77b4"/>
     <use xlink:href="#m6cea7f65bf" x="186.233812" y="114.307178" style="fill: #1f77b4; stroke: #1f77b4"/>
     <use xlink:href="#m6cea7f65bf" x="301.795832" y="223.705266" style="fill: #1f77b4; stroke: #1f77b4"/>
     <use xlink:href="#m6cea7f65bf" x="292.179641" y="164.280159" style="fill: #1f77b4; stroke: #1f77b4"/>
     <use xlink:href="#m6cea7f65bf" x="343.894623" y="167.239085" style="fill: #1f77b4; stroke: #1f77b4"/>
     <use xlink:href="#m6cea7f65bf" x="299.000427" y="189.513226" style="fill: #1f77b4; stroke: #1f77b4"/>
     <use xlink:href="#m6cea7f65bf" x="257.348901" y="78.060329" style="fill: #1f77b4; stroke: #1f77b4"/>
     <use xlink:href="#m6cea7f65bf" x="266.294195" y="161.403425" style="fill: #1f77b4; stroke: #1f77b4"/>
     <use xlink:href="#m6cea7f65bf" x="236.551092" y="189.513226" style="fill: #1f77b4; stroke: #1f77b4"/>
     <use xlink:href="#m6cea7f65bf" x="320.972306" y="213.759985" style="fill: #1f77b4; stroke: #1f77b4"/>
     <use xlink:href="#m6cea7f65bf" x="127.362594" y="213.759985" style="fill: #1f77b4; stroke: #1f77b4"/>
     <use xlink:href="#m6cea7f65bf" x="370.730506" y="196.663965" style="fill: #1f77b4; stroke: #1f77b4"/>
     <use xlink:href="#m6cea7f65bf" x="243.371879" y="177.019981" style="fill: #1f77b4; stroke: #1f77b4"/>
     <use xlink:href="#m6cea7f65bf" x="215.585559" y="187.129647" style="fill: #1f77b4; stroke: #1f77b4"/>
     <use xlink:href="#m6cea7f65bf" x="343.223726" y="94.991964" style="fill: #1f77b4; stroke: #1f77b4"/>
     <use xlink:href="#m6cea7f65bf" x="185.227466" y="61.128694" style="fill: #1f77b4; stroke: #1f77b4"/>
     <use xlink:href="#m6cea7f65bf" x="251.869908" y="198.472198" style="fill: #1f77b4; stroke: #1f77b4"/>
     <use xlink:href="#m6cea7f65bf" x="116.851874" y="212.444906" style="fill: #1f77b4; stroke: #1f77b4"/>
     <use xlink:href="#m6cea7f65bf" x="295.813666" y="171.266513" style="fill: #1f77b4; stroke: #1f77b4"/>
     <use xlink:href="#m6cea7f65bf" x="325.668586" y="223.129919" style="fill: #1f77b4; stroke: #1f77b4"/>
     <use xlink:href="#m6cea7f65bf" x="308.113446" y="171.677475" style="fill: #1f77b4; stroke: #1f77b4"/>
     <use xlink:href="#m6cea7f65bf" x="206.863897" y="157.540382" style="fill: #1f77b4; stroke: #1f77b4"/>
     <use xlink:href="#m6cea7f65bf" x="231.463456" y="120.718186" style="fill: #1f77b4; stroke: #1f77b4"/>
     <use xlink:href="#m6cea7f65bf" x="269.033692" y="236.938242" style="fill: #1f77b4; stroke: #1f77b4"/>
     <use xlink:href="#m6cea7f65bf" x="247.173629" y="170.526781" style="fill: #1f77b4; stroke: #1f77b4"/>
     <use xlink:href="#m6cea7f65bf" x="248.850872" y="90.800151" style="fill: #1f77b4; stroke: #1f77b4"/>
     <use xlink:href="#m6cea7f65bf" x="260.535662" y="175.869287" style="fill: #1f77b4; stroke: #1f77b4"/>
     <use xlink:href="#m6cea7f65bf" x="364.301075" y="206.198284" style="fill: #1f77b4; stroke: #1f77b4"/>
     <use xlink:href="#m6cea7f65bf" x="234.482493" y="173.650093" style="fill: #1f77b4; stroke: #1f77b4"/>
     <use xlink:href="#m6cea7f65bf" x="261.4861" y="151.786914" style="fill: #1f77b4; stroke: #1f77b4"/>
     <use xlink:href="#m6cea7f65bf" x="181.425716" y="124.252459" style="fill: #1f77b4; stroke: #1f77b4"/>
     <use xlink:href="#m6cea7f65bf" x="352.951733" y="227.403924" style="fill: #1f77b4; stroke: #1f77b4"/>
     <use xlink:href="#m6cea7f65bf" x="294.192332" y="223.540881" style="fill: #1f77b4; stroke: #1f77b4"/>
     <use xlink:href="#m6cea7f65bf" x="291.844192" y="215.239448" style="fill: #1f77b4; stroke: #1f77b4"/>
     <use xlink:href="#m6cea7f65bf" x="337.185652" y="225.184729" style="fill: #1f77b4; stroke: #1f77b4"/>
     <use xlink:href="#m6cea7f65bf" x="276.078111" y="189.513226" style="fill: #1f77b4; stroke: #1f77b4"/>
     <use xlink:href="#m6cea7f65bf" x="254.609405" y="161.567809" style="fill: #1f77b4; stroke: #1f77b4"/>
     <use xlink:href="#m6cea7f65bf" x="341.770116" y="211.951752" style="fill: #1f77b4; stroke: #1f77b4"/>
     <use xlink:href="#m6cea7f65bf" x="164.094209" y="174.061055" style="fill: #1f77b4; stroke: #1f77b4"/>
     <use xlink:href="#m6cea7f65bf" x="359.269347" y="123.26615" style="fill: #1f77b4; stroke: #1f77b4"/>
     <use xlink:href="#m6cea7f65bf" x="191.041908" y="145.704676" style="fill: #1f77b4; stroke: #1f77b4"/>
     <use xlink:href="#m6cea7f65bf" x="226.599452" y="180.307677" style="fill: #1f77b4; stroke: #1f77b4"/>
     <use xlink:href="#m6cea7f65bf" x="339.477884" y="179.567946" style="fill: #1f77b4; stroke: #1f77b4"/>
     <use xlink:href="#m6cea7f65bf" x="282.060277" y="209.321595" style="fill: #1f77b4; stroke: #1f77b4"/>
     <use xlink:href="#m6cea7f65bf" x="333.216178" y="195.595464" style="fill: #1f77b4; stroke: #1f77b4"/>
     <use xlink:href="#m6cea7f65bf" x="310.405678" y="211.047636" style="fill: #1f77b4; stroke: #1f77b4"/>
     <use xlink:href="#m6cea7f65bf" x="249.969033" y="161.156847" style="fill: #1f77b4; stroke: #1f77b4"/>
     <use xlink:href="#m6cea7f65bf" x="337.297468" y="193.211884" style="fill: #1f77b4; stroke: #1f77b4"/>
     <use xlink:href="#m6cea7f65bf" x="372.910921" y="187.129647" style="fill: #1f77b4; stroke: #1f77b4"/>
     <use xlink:href="#m6cea7f65bf" x="143.855481" y="208.417479" style="fill: #1f77b4; stroke: #1f77b4"/>
     <use xlink:href="#m6cea7f65bf" x="346.522303" y="140.444362" style="fill: #1f77b4; stroke: #1f77b4"/>
     <use xlink:href="#m6cea7f65bf" x="372.184116" y="152.197876" style="fill: #1f77b4; stroke: #1f77b4"/>
     <use xlink:href="#m6cea7f65bf" x="264.784677" y="192.965307" style="fill: #1f77b4; stroke: #1f77b4"/>
     <use xlink:href="#m6cea7f65bf" x="325.221321" y="148.499218" style="fill: #1f77b4; stroke: #1f77b4"/>
     <use xlink:href="#m6cea7f65bf" x="214.187857" y="179.403561" style="fill: #1f77b4; stroke: #1f77b4"/>
     <use xlink:href="#m6cea7f65bf" x="208.149783" y="151.786914" style="fill: #1f77b4; stroke: #1f77b4"/>
     <use xlink:href="#m6cea7f65bf" x="308.392986" y="185.239221" style="fill: #1f77b4; stroke: #1f77b4"/>
     <use xlink:href="#m6cea7f65bf" x="117.690495" y="226.25323" style="fill: #1f77b4; stroke: #1f77b4"/>
     <use xlink:href="#m6cea7f65bf" x="119.144105" y="238.006744" style="fill: #1f77b4; stroke: #1f77b4"/>
     <use xlink:href="#m6cea7f65bf" x="214.746937" y="180.143292" style="fill: #1f77b4; stroke: #1f77b4"/>
     <use xlink:href="#m6cea7f65bf" x="240.40875" y="180.636447" style="fill: #1f77b4; stroke: #1f77b4"/>
     <use xlink:href="#m6cea7f65bf" x="333.272086" y="233.650546" style="fill: #1f77b4; stroke: #1f77b4"/>
     <use xlink:href="#m6cea7f65bf" x="121.659969" y="242.116364" style="fill: #1f77b4; stroke: #1f77b4"/>
     <use xlink:href="#m6cea7f65bf" x="324.66224" y="218.03399" style="fill: #1f77b4; stroke: #1f77b4"/>
     <use xlink:href="#m6cea7f65bf" x="280.550758" y="227.897078" style="fill: #1f77b4; stroke: #1f77b4"/>
     <use xlink:href="#m6cea7f65bf" x="233.587963" y="198.88316" style="fill: #1f77b4; stroke: #1f77b4"/>
     <use xlink:href="#m6cea7f65bf" x="334.33434" y="235.130009" style="fill: #1f77b4; stroke: #1f77b4"/>
     <use xlink:href="#m6cea7f65bf" x="316.220119" y="182.855642" style="fill: #1f77b4; stroke: #1f77b4"/>
     <use xlink:href="#m6cea7f65bf" x="206.081184" y="214.335332" style="fill: #1f77b4; stroke: #1f77b4"/>
     <use xlink:href="#m6cea7f65bf" x="214.691029" y="135.59501" style="fill: #1f77b4; stroke: #1f77b4"/>
     <use xlink:href="#m6cea7f65bf" x="265.958747" y="157.12942" style="fill: #1f77b4; stroke: #1f77b4"/>
     <use xlink:href="#m6cea7f65bf" x="222.57407" y="199.787277" style="fill: #1f77b4; stroke: #1f77b4"/>
     <use xlink:href="#m6cea7f65bf" x="357.256656" y="142.581365" style="fill: #1f77b4; stroke: #1f77b4"/>
     <use xlink:href="#m6cea7f65bf" x="182.264338" y="213.431215" style="fill: #1f77b4; stroke: #1f77b4"/>
     <use xlink:href="#m6cea7f65bf" x="262.212905" y="161.156847" style="fill: #1f77b4; stroke: #1f77b4"/>
     <use xlink:href="#m6cea7f65bf" x="299.112244" y="239.321822" style="fill: #1f77b4; stroke: #1f77b4"/>
     <use xlink:href="#m6cea7f65bf" x="170.300007" y="199.047545" style="fill: #1f77b4; stroke: #1f77b4"/>
     <use xlink:href="#m6cea7f65bf" x="160.068826" y="204.554436" style="fill: #1f77b4; stroke: #1f77b4"/>
     <use xlink:href="#m6cea7f65bf" x="359.269347" y="189.513226" style="fill: #1f77b4; stroke: #1f77b4"/>
     <use xlink:href="#m6cea7f65bf" x="331.762568" y="192.965307" style="fill: #1f77b4; stroke: #1f77b4"/>
     <use xlink:href="#m6cea7f65bf" x="319.295064" y="175.376133" style="fill: #1f77b4; stroke: #1f77b4"/>
     <use xlink:href="#m6cea7f65bf" x="344.509612" y="184.910452" style="fill: #1f77b4; stroke: #1f77b4"/>
     <use xlink:href="#m6cea7f65bf" x="350.435869" y="193.211884" style="fill: #1f77b4; stroke: #1f77b4"/>
     <use xlink:href="#m6cea7f65bf" x="361.226131" y="167.239085" style="fill: #1f77b4; stroke: #1f77b4"/>
     <use xlink:href="#m6cea7f65bf" x="305.709398" y="228.801194" style="fill: #1f77b4; stroke: #1f77b4"/>
     <use xlink:href="#m6cea7f65bf" x="305.262133" y="178.499444" style="fill: #1f77b4; stroke: #1f77b4"/>
     <use xlink:href="#m6cea7f65bf" x="368.885539" y="169.622665" style="fill: #1f77b4; stroke: #1f77b4"/>
     <use xlink:href="#m6cea7f65bf" x="326.171759" y="170.526781" style="fill: #1f77b4; stroke: #1f77b4"/>
     <use xlink:href="#m6cea7f65bf" x="356.418035" y="189.677611" style="fill: #1f77b4; stroke: #1f77b4"/>
     <use xlink:href="#m6cea7f65bf" x="185.507007" y="85.211068" style="fill: #1f77b4; stroke: #1f77b4"/>
     <use xlink:href="#m6cea7f65bf" x="252.093541" y="177.759713" style="fill: #1f77b4; stroke: #1f77b4"/>
     <use xlink:href="#m6cea7f65bf" x="357.592105" y="122.93738" style="fill: #1f77b4; stroke: #1f77b4"/>
     <use xlink:href="#m6cea7f65bf" x="347.808189" y="154.910225" style="fill: #1f77b4; stroke: #1f77b4"/>
     <use xlink:href="#m6cea7f65bf" x="353.790355" y="152.197876" style="fill: #1f77b4; stroke: #1f77b4"/>
     <use xlink:href="#m6cea7f65bf" x="327.849001" y="220.910724" style="fill: #1f77b4; stroke: #1f77b4"/>
     <use xlink:href="#m6cea7f65bf" x="257.96389" y="221.157301" style="fill: #1f77b4; stroke: #1f77b4"/>
     <use xlink:href="#m6cea7f65bf" x="326.73084" y="202.581818" style="fill: #1f77b4; stroke: #1f77b4"/>
     <use xlink:href="#m6cea7f65bf" x="269.760497" y="170.526781" style="fill: #1f77b4; stroke: #1f77b4"/>
     <use xlink:href="#m6cea7f65bf" x="334.781604" y="207.348978" style="fill: #1f77b4; stroke: #1f77b4"/>
     <use xlink:href="#m6cea7f65bf" x="209.659301" y="210.636674" style="fill: #1f77b4; stroke: #1f77b4"/>
     <use xlink:href="#m6cea7f65bf" x="215.417834" y="185.978953" style="fill: #1f77b4; stroke: #1f77b4"/>
     <use xlink:href="#m6cea7f65bf" x="367.09648" y="197.568082" style="fill: #1f77b4; stroke: #1f77b4"/>
     <use xlink:href="#m6cea7f65bf" x="261.989273" y="161.156847" style="fill: #1f77b4; stroke: #1f77b4"/>
     <use xlink:href="#m6cea7f65bf" x="261.933365" y="139.458053" style="fill: #1f77b4; stroke: #1f77b4"/>
     <use xlink:href="#m6cea7f65bf" x="234.147044" y="91.45769" style="fill: #1f77b4; stroke: #1f77b4"/>
     <use xlink:href="#m6cea7f65bf" x="320.357317" y="192.965307" style="fill: #1f77b4; stroke: #1f77b4"/>
     <use xlink:href="#m6cea7f65bf" x="326.563115" y="213.184638" style="fill: #1f77b4; stroke: #1f77b4"/>
     <use xlink:href="#m6cea7f65bf" x="286.085659" y="172.745976" style="fill: #1f77b4; stroke: #1f77b4"/>
     <use xlink:href="#m6cea7f65bf" x="259.417501" y="122.362034" style="fill: #1f77b4; stroke: #1f77b4"/>
     <use xlink:href="#m6cea7f65bf" x="212.678338" y="233.239584" style="fill: #1f77b4; stroke: #1f77b4"/>
     <use xlink:href="#m6cea7f65bf" x="359.437072" y="118.909953" style="fill: #1f77b4; stroke: #1f77b4"/>
     <use xlink:href="#m6cea7f65bf" x="277.587629" y="111.183867" style="fill: #1f77b4; stroke: #1f77b4"/>
     <use xlink:href="#m6cea7f65bf" x="178.015323" y="226.088845" style="fill: #1f77b4; stroke: #1f77b4"/>
     <use xlink:href="#m6cea7f65bf" x="337.129744" y="174.389824" style="fill: #1f77b4; stroke: #1f77b4"/>
     <use xlink:href="#m6cea7f65bf" x="276.581284" y="160.088346" style="fill: #1f77b4; stroke: #1f77b4"/>
     <use xlink:href="#m6cea7f65bf" x="276.97264" y="123.26615" style="fill: #1f77b4; stroke: #1f77b4"/>
     <use xlink:href="#m6cea7f65bf" x="242.197809" y="114.142793" style="fill: #1f77b4; stroke: #1f77b4"/>
     <use xlink:href="#m6cea7f65bf" x="321.922744" y="139.293668" style="fill: #1f77b4; stroke: #1f77b4"/>
     <use xlink:href="#m6cea7f65bf" x="262.604262" y="136.745704" style="fill: #1f77b4; stroke: #1f77b4"/>
     <use xlink:href="#m6cea7f65bf" x="181.705257" y="165.924007" style="fill: #1f77b4; stroke: #1f77b4"/>
     <use xlink:href="#m6cea7f65bf" x="179.357117" y="203.32155" style="fill: #1f77b4; stroke: #1f77b4"/>
     <use xlink:href="#m6cea7f65bf" x="363.853811" y="204.061281" style="fill: #1f77b4; stroke: #1f77b4"/>
     <use xlink:href="#m6cea7f65bf" x="311.020667" y="181.211794" style="fill: #1f77b4; stroke: #1f77b4"/>
     <use xlink:href="#m6cea7f65bf" x="332.489373" y="224.609382" style="fill: #1f77b4; stroke: #1f77b4"/>
     <use xlink:href="#m6cea7f65bf" x="265.120126" y="189.102264" style="fill: #1f77b4; stroke: #1f77b4"/>
     <use xlink:href="#m6cea7f65bf" x="370.283241" y="218.03399" style="fill: #1f77b4; stroke: #1f77b4"/>
     <use xlink:href="#m6cea7f65bf" x="366.816939" y="190.252958" style="fill: #1f77b4; stroke: #1f77b4"/>
     <use xlink:href="#m6cea7f65bf" x="373.581818" y="110.60852" style="fill: #1f77b4; stroke: #1f77b4"/>
     <use xlink:href="#m6cea7f65bf" x="145.532723" y="76.087711" style="fill: #1f77b4; stroke: #1f77b4"/>
     <use xlink:href="#m6cea7f65bf" x="315.88467" y="201.842087" style="fill: #1f77b4; stroke: #1f77b4"/>
     <use xlink:href="#m6cea7f65bf" x="260.032489" y="119.978454" style="fill: #1f77b4; stroke: #1f77b4"/>
     <use xlink:href="#m6cea7f65bf" x="211.560176" y="167.239085" style="fill: #1f77b4; stroke: #1f77b4"/>
     <use xlink:href="#m6cea7f65bf" x="264.896493" y="89.813842" style="fill: #1f77b4; stroke: #1f77b4"/>
     <use xlink:href="#m6cea7f65bf" x="365.363329" y="197.403697" style="fill: #1f77b4; stroke: #1f77b4"/>
     <use xlink:href="#m6cea7f65bf" x="370.506873" y="231.020389" style="fill: #1f77b4; stroke: #1f77b4"/>
    </g>
   </g>
   <g id="matplotlib.axis_1">
    <g id="xtick_1">
     <g id="line2d_1">
      <defs>
       <path id="m11e708f124" d="M 0 0 
L 0 3.5 
" style="stroke: #000000; stroke-width: 0.8"/>
      </defs>
      <g>
       <use xlink:href="#m11e708f124" x="96.054065" y="252" style="stroke: #000000; stroke-width: 0.8"/>
      </g>
     </g>
     <g id="text_1">
      <!-- −50 -->
      <g transform="translate(85.501721 266.598437)scale(0.1 -0.1)">
       <defs>
        <path id="DejaVuSans-2212" d="M 678 2272 
L 4684 2272 
L 4684 1741 
L 678 1741 
L 678 2272 
z
" transform="scale(0.015625)"/>
        <path id="DejaVuSans-35" d="M 691 4666 
L 3169 4666 
L 3169 4134 
L 1269 4134 
L 1269 2991 
Q 1406 3038 1543 3061 
Q 1681 3084 1819 3084 
Q 2600 3084 3056 2656 
Q 3513 2228 3513 1497 
Q 3513 744 3044 326 
Q 2575 -91 1722 -91 
Q 1428 -91 1123 -41 
Q 819 9 494 109 
L 494 744 
Q 775 591 1075 516 
Q 1375 441 1709 441 
Q 2250 441 2565 725 
Q 2881 1009 2881 1497 
Q 2881 1984 2565 2268 
Q 2250 2553 1709 2553 
Q 1456 2553 1204 2497 
Q 953 2441 691 2322 
L 691 4666 
z
" transform="scale(0.015625)"/>
        <path id="DejaVuSans-30" d="M 2034 4250 
Q 1547 4250 1301 3770 
Q 1056 3291 1056 2328 
Q 1056 1369 1301 889 
Q 1547 409 2034 409 
Q 2525 409 2770 889 
Q 3016 1369 3016 2328 
Q 3016 3291 2770 3770 
Q 2525 4250 2034 4250 
z
M 2034 4750 
Q 2819 4750 3233 4129 
Q 3647 3509 3647 2328 
Q 3647 1150 3233 529 
Q 2819 -91 2034 -91 
Q 1250 -91 836 529 
Q 422 1150 422 2328 
Q 422 3509 836 4129 
Q 1250 4750 2034 4750 
z
" transform="scale(0.015625)"/>
       </defs>
       <use xlink:href="#DejaVuSans-2212"/>
       <use xlink:href="#DejaVuSans-35" x="83.789062"/>
       <use xlink:href="#DejaVuSans-30" x="147.412109"/>
      </g>
     </g>
    </g>
    <g id="xtick_2">
     <g id="line2d_2">
      <g>
       <use xlink:href="#m11e708f124" x="151.962153" y="252" style="stroke: #000000; stroke-width: 0.8"/>
      </g>
     </g>
     <g id="text_2">
      <!-- −40 -->
      <g transform="translate(141.40981 266.598437)scale(0.1 -0.1)">
       <defs>
        <path id="DejaVuSans-34" d="M 2419 4116 
L 825 1625 
L 2419 1625 
L 2419 4116 
z
M 2253 4666 
L 3047 4666 
L 3047 1625 
L 3713 1625 
L 3713 1100 
L 3047 1100 
L 3047 0 
L 2419 0 
L 2419 1100 
L 313 1100 
L 313 1709 
L 2253 4666 
z
" transform="scale(0.015625)"/>
       </defs>
       <use xlink:href="#DejaVuSans-2212"/>
       <use xlink:href="#DejaVuSans-34" x="83.789062"/>
       <use xlink:href="#DejaVuSans-30" x="147.412109"/>
      </g>
     </g>
    </g>
    <g id="xtick_3">
     <g id="line2d_3">
      <g>
       <use xlink:href="#m11e708f124" x="207.870242" y="252" style="stroke: #000000; stroke-width: 0.8"/>
      </g>
     </g>
     <g id="text_3">
      <!-- −30 -->
      <g transform="translate(197.317899 266.598437)scale(0.1 -0.1)">
       <defs>
        <path id="DejaVuSans-33" d="M 2597 2516 
Q 3050 2419 3304 2112 
Q 3559 1806 3559 1356 
Q 3559 666 3084 287 
Q 2609 -91 1734 -91 
Q 1441 -91 1130 -33 
Q 819 25 488 141 
L 488 750 
Q 750 597 1062 519 
Q 1375 441 1716 441 
Q 2309 441 2620 675 
Q 2931 909 2931 1356 
Q 2931 1769 2642 2001 
Q 2353 2234 1838 2234 
L 1294 2234 
L 1294 2753 
L 1863 2753 
Q 2328 2753 2575 2939 
Q 2822 3125 2822 3475 
Q 2822 3834 2567 4026 
Q 2313 4219 1838 4219 
Q 1578 4219 1281 4162 
Q 984 4106 628 3988 
L 628 4550 
Q 988 4650 1302 4700 
Q 1616 4750 1894 4750 
Q 2613 4750 3031 4423 
Q 3450 4097 3450 3541 
Q 3450 3153 3228 2886 
Q 3006 2619 2597 2516 
z
" transform="scale(0.015625)"/>
       </defs>
       <use xlink:href="#DejaVuSans-2212"/>
       <use xlink:href="#DejaVuSans-33" x="83.789062"/>
       <use xlink:href="#DejaVuSans-30" x="147.412109"/>
      </g>
     </g>
    </g>
    <g id="xtick_4">
     <g id="line2d_4">
      <g>
       <use xlink:href="#m11e708f124" x="263.778331" y="252" style="stroke: #000000; stroke-width: 0.8"/>
      </g>
     </g>
     <g id="text_4">
      <!-- −20 -->
      <g transform="translate(253.225988 266.598437)scale(0.1 -0.1)">
       <defs>
        <path id="DejaVuSans-32" d="M 1228 531 
L 3431 531 
L 3431 0 
L 469 0 
L 469 531 
Q 828 903 1448 1529 
Q 2069 2156 2228 2338 
Q 2531 2678 2651 2914 
Q 2772 3150 2772 3378 
Q 2772 3750 2511 3984 
Q 2250 4219 1831 4219 
Q 1534 4219 1204 4116 
Q 875 4013 500 3803 
L 500 4441 
Q 881 4594 1212 4672 
Q 1544 4750 1819 4750 
Q 2544 4750 2975 4387 
Q 3406 4025 3406 3419 
Q 3406 3131 3298 2873 
Q 3191 2616 2906 2266 
Q 2828 2175 2409 1742 
Q 1991 1309 1228 531 
z
" transform="scale(0.015625)"/>
       </defs>
       <use xlink:href="#DejaVuSans-2212"/>
       <use xlink:href="#DejaVuSans-32" x="83.789062"/>
       <use xlink:href="#DejaVuSans-30" x="147.412109"/>
      </g>
     </g>
    </g>
    <g id="xtick_5">
     <g id="line2d_5">
      <g>
       <use xlink:href="#m11e708f124" x="319.68642" y="252" style="stroke: #000000; stroke-width: 0.8"/>
      </g>
     </g>
     <g id="text_5">
      <!-- −10 -->
      <g transform="translate(309.134077 266.598437)scale(0.1 -0.1)">
       <defs>
        <path id="DejaVuSans-31" d="M 794 531 
L 1825 531 
L 1825 4091 
L 703 3866 
L 703 4441 
L 1819 4666 
L 2450 4666 
L 2450 531 
L 3481 531 
L 3481 0 
L 794 0 
L 794 531 
z
" transform="scale(0.015625)"/>
       </defs>
       <use xlink:href="#DejaVuSans-2212"/>
       <use xlink:href="#DejaVuSans-31" x="83.789062"/>
       <use xlink:href="#DejaVuSans-30" x="147.412109"/>
      </g>
     </g>
    </g>
    <g id="xtick_6">
     <g id="line2d_6">
      <g>
       <use xlink:href="#m11e708f124" x="375.594509" y="252" style="stroke: #000000; stroke-width: 0.8"/>
      </g>
     </g>
     <g id="text_6">
      <!-- 0 -->
      <g transform="translate(372.413259 266.598437)scale(0.1 -0.1)">
       <use xlink:href="#DejaVuSans-30"/>
      </g>
     </g>
    </g>
    <g id="text_7">
     <!-- Latitude -->
     <g transform="translate(200.821094 280.276563)scale(0.1 -0.1)">
      <defs>
       <path id="DejaVuSans-4c" d="M 628 4666 
L 1259 4666 
L 1259 531 
L 3531 531 
L 3531 0 
L 628 0 
L 628 4666 
z
" transform="scale(0.015625)"/>
       <path id="DejaVuSans-61" d="M 2194 1759 
Q 1497 1759 1228 1600 
Q 959 1441 959 1056 
Q 959 750 1161 570 
Q 1363 391 1709 391 
Q 2188 391 2477 730 
Q 2766 1069 2766 1631 
L 2766 1759 
L 2194 1759 
z
M 3341 1997 
L 3341 0 
L 2766 0 
L 2766 531 
Q 2569 213 2275 61 
Q 1981 -91 1556 -91 
Q 1019 -91 701 211 
Q 384 513 384 1019 
Q 384 1609 779 1909 
Q 1175 2209 1959 2209 
L 2766 2209 
L 2766 2266 
Q 2766 2663 2505 2880 
Q 2244 3097 1772 3097 
Q 1472 3097 1187 3025 
Q 903 2953 641 2809 
L 641 3341 
Q 956 3463 1253 3523 
Q 1550 3584 1831 3584 
Q 2591 3584 2966 3190 
Q 3341 2797 3341 1997 
z
" transform="scale(0.015625)"/>
       <path id="DejaVuSans-74" d="M 1172 4494 
L 1172 3500 
L 2356 3500 
L 2356 3053 
L 1172 3053 
L 1172 1153 
Q 1172 725 1289 603 
Q 1406 481 1766 481 
L 2356 481 
L 2356 0 
L 1766 0 
Q 1100 0 847 248 
Q 594 497 594 1153 
L 594 3053 
L 172 3053 
L 172 3500 
L 594 3500 
L 594 4494 
L 1172 4494 
z
" transform="scale(0.015625)"/>
       <path id="DejaVuSans-69" d="M 603 3500 
L 1178 3500 
L 1178 0 
L 603 0 
L 603 3500 
z
M 603 4863 
L 1178 4863 
L 1178 4134 
L 603 4134 
L 603 4863 
z
" transform="scale(0.015625)"/>
       <path id="DejaVuSans-75" d="M 544 1381 
L 544 3500 
L 1119 3500 
L 1119 1403 
Q 1119 906 1312 657 
Q 1506 409 1894 409 
Q 2359 409 2629 706 
Q 2900 1003 2900 1516 
L 2900 3500 
L 3475 3500 
L 3475 0 
L 2900 0 
L 2900 538 
Q 2691 219 2414 64 
Q 2138 -91 1772 -91 
Q 1169 -91 856 284 
Q 544 659 544 1381 
z
M 1991 3584 
L 1991 3584 
z
" transform="scale(0.015625)"/>
       <path id="DejaVuSans-64" d="M 2906 2969 
L 2906 4863 
L 3481 4863 
L 3481 0 
L 2906 0 
L 2906 525 
Q 2725 213 2448 61 
Q 2172 -91 1784 -91 
Q 1150 -91 751 415 
Q 353 922 353 1747 
Q 353 2572 751 3078 
Q 1150 3584 1784 3584 
Q 2172 3584 2448 3432 
Q 2725 3281 2906 2969 
z
M 947 1747 
Q 947 1113 1208 752 
Q 1469 391 1925 391 
Q 2381 391 2643 752 
Q 2906 1113 2906 1747 
Q 2906 2381 2643 2742 
Q 2381 3103 1925 3103 
Q 1469 3103 1208 2742 
Q 947 2381 947 1747 
z
" transform="scale(0.015625)"/>
       <path id="DejaVuSans-65" d="M 3597 1894 
L 3597 1613 
L 953 1613 
Q 991 1019 1311 708 
Q 1631 397 2203 397 
Q 2534 397 2845 478 
Q 3156 559 3463 722 
L 3463 178 
Q 3153 47 2828 -22 
Q 2503 -91 2169 -91 
Q 1331 -91 842 396 
Q 353 884 353 1716 
Q 353 2575 817 3079 
Q 1281 3584 2069 3584 
Q 2775 3584 3186 3129 
Q 3597 2675 3597 1894 
z
M 3022 2063 
Q 3016 2534 2758 2815 
Q 2500 3097 2075 3097 
Q 1594 3097 1305 2825 
Q 1016 2553 972 2059 
L 3022 2063 
z
" transform="scale(0.015625)"/>
      </defs>
      <use xlink:href="#DejaVuSans-4c"/>
      <use xlink:href="#DejaVuSans-61" x="55.712891"/>
      <use xlink:href="#DejaVuSans-74" x="116.992188"/>
      <use xlink:href="#DejaVuSans-69" x="156.201172"/>
      <use xlink:href="#DejaVuSans-74" x="183.984375"/>
      <use xlink:href="#DejaVuSans-75" x="223.193359"/>
      <use xlink:href="#DejaVuSans-64" x="286.572266"/>
      <use xlink:href="#DejaVuSans-65" x="350.048828"/>
     </g>
    </g>
   </g>
   <g id="matplotlib.axis_2">
    <g id="ytick_1">
     <g id="line2d_7">
      <defs>
       <path id="mc514d1fd7c" d="M 0 0 
L -3.5 0 
" style="stroke: #000000; stroke-width: 0.8"/>
      </defs>
      <g>
       <use xlink:href="#mc514d1fd7c" x="54" y="246.308176" style="stroke: #000000; stroke-width: 0.8"/>
      </g>
     </g>
     <g id="text_8">
      <!-- 0 -->
      <g transform="translate(40.6375 250.107395)scale(0.1 -0.1)">
       <use xlink:href="#DejaVuSans-30"/>
      </g>
     </g>
    </g>
    <g id="ytick_2">
     <g id="line2d_8">
      <g>
       <use xlink:href="#mc514d1fd7c" x="54" y="205.211975" style="stroke: #000000; stroke-width: 0.8"/>
      </g>
     </g>
     <g id="text_9">
      <!-- 5 -->
      <g transform="translate(40.6375 209.011194)scale(0.1 -0.1)">
       <use xlink:href="#DejaVuSans-35"/>
      </g>
     </g>
    </g>
    <g id="ytick_3">
     <g id="line2d_9">
      <g>
       <use xlink:href="#mc514d1fd7c" x="54" y="164.115774" style="stroke: #000000; stroke-width: 0.8"/>
      </g>
     </g>
     <g id="text_10">
      <!-- 10 -->
      <g transform="translate(34.275 167.914993)scale(0.1 -0.1)">
       <use xlink:href="#DejaVuSans-31"/>
       <use xlink:href="#DejaVuSans-30" x="63.623047"/>
      </g>
     </g>
    </g>
    <g id="ytick_4">
     <g id="line2d_10">
      <g>
       <use xlink:href="#mc514d1fd7c" x="54" y="123.019573" style="stroke: #000000; stroke-width: 0.8"/>
      </g>
     </g>
     <g id="text_11">
      <!-- 15 -->
      <g transform="translate(34.275 126.818792)scale(0.1 -0.1)">
       <use xlink:href="#DejaVuSans-31"/>
       <use xlink:href="#DejaVuSans-35" x="63.623047"/>
      </g>
     </g>
    </g>
    <g id="ytick_5">
     <g id="line2d_11">
      <g>
       <use xlink:href="#mc514d1fd7c" x="54" y="81.923372" style="stroke: #000000; stroke-width: 0.8"/>
      </g>
     </g>
     <g id="text_12">
      <!-- 20 -->
      <g transform="translate(34.275 85.722591)scale(0.1 -0.1)">
       <use xlink:href="#DejaVuSans-32"/>
       <use xlink:href="#DejaVuSans-30" x="63.623047"/>
      </g>
     </g>
    </g>
    <g id="ytick_6">
     <g id="line2d_12">
      <g>
       <use xlink:href="#mc514d1fd7c" x="54" y="40.827171" style="stroke: #000000; stroke-width: 0.8"/>
      </g>
     </g>
     <g id="text_13">
      <!-- 25 -->
      <g transform="translate(34.275 44.626389)scale(0.1 -0.1)">
       <use xlink:href="#DejaVuSans-32"/>
       <use xlink:href="#DejaVuSans-35" x="63.623047"/>
      </g>
     </g>
    </g>
    <g id="text_14">
     <!-- Wind Speed (mph) -->
     <g transform="translate(28.195312 189.812031)rotate(-90)scale(0.1 -0.1)">
      <defs>
       <path id="DejaVuSans-57" d="M 213 4666 
L 850 4666 
L 1831 722 
L 2809 4666 
L 3519 4666 
L 4500 722 
L 5478 4666 
L 6119 4666 
L 4947 0 
L 4153 0 
L 3169 4050 
L 2175 0 
L 1381 0 
L 213 4666 
z
" transform="scale(0.015625)"/>
       <path id="DejaVuSans-6e" d="M 3513 2113 
L 3513 0 
L 2938 0 
L 2938 2094 
Q 2938 2591 2744 2837 
Q 2550 3084 2163 3084 
Q 1697 3084 1428 2787 
Q 1159 2491 1159 1978 
L 1159 0 
L 581 0 
L 581 3500 
L 1159 3500 
L 1159 2956 
Q 1366 3272 1645 3428 
Q 1925 3584 2291 3584 
Q 2894 3584 3203 3211 
Q 3513 2838 3513 2113 
z
" transform="scale(0.015625)"/>
       <path id="DejaVuSans-20" transform="scale(0.015625)"/>
       <path id="DejaVuSans-53" d="M 3425 4513 
L 3425 3897 
Q 3066 4069 2747 4153 
Q 2428 4238 2131 4238 
Q 1616 4238 1336 4038 
Q 1056 3838 1056 3469 
Q 1056 3159 1242 3001 
Q 1428 2844 1947 2747 
L 2328 2669 
Q 3034 2534 3370 2195 
Q 3706 1856 3706 1288 
Q 3706 609 3251 259 
Q 2797 -91 1919 -91 
Q 1588 -91 1214 -16 
Q 841 59 441 206 
L 441 856 
Q 825 641 1194 531 
Q 1563 422 1919 422 
Q 2459 422 2753 634 
Q 3047 847 3047 1241 
Q 3047 1584 2836 1778 
Q 2625 1972 2144 2069 
L 1759 2144 
Q 1053 2284 737 2584 
Q 422 2884 422 3419 
Q 422 4038 858 4394 
Q 1294 4750 2059 4750 
Q 2388 4750 2728 4690 
Q 3069 4631 3425 4513 
z
" transform="scale(0.015625)"/>
       <path id="DejaVuSans-70" d="M 1159 525 
L 1159 -1331 
L 581 -1331 
L 581 3500 
L 1159 3500 
L 1159 2969 
Q 1341 3281 1617 3432 
Q 1894 3584 2278 3584 
Q 2916 3584 3314 3078 
Q 3713 2572 3713 1747 
Q 3713 922 3314 415 
Q 2916 -91 2278 -91 
Q 1894 -91 1617 61 
Q 1341 213 1159 525 
z
M 3116 1747 
Q 3116 2381 2855 2742 
Q 2594 3103 2138 3103 
Q 1681 3103 1420 2742 
Q 1159 2381 1159 1747 
Q 1159 1113 1420 752 
Q 1681 391 2138 391 
Q 2594 391 2855 752 
Q 3116 1113 3116 1747 
z
" transform="scale(0.015625)"/>
       <path id="DejaVuSans-28" d="M 1984 4856 
Q 1566 4138 1362 3434 
Q 1159 2731 1159 2009 
Q 1159 1288 1364 580 
Q 1569 -128 1984 -844 
L 1484 -844 
Q 1016 -109 783 600 
Q 550 1309 550 2009 
Q 550 2706 781 3412 
Q 1013 4119 1484 4856 
L 1984 4856 
z
" transform="scale(0.015625)"/>
       <path id="DejaVuSans-6d" d="M 3328 2828 
Q 3544 3216 3844 3400 
Q 4144 3584 4550 3584 
Q 5097 3584 5394 3201 
Q 5691 2819 5691 2113 
L 5691 0 
L 5113 0 
L 5113 2094 
Q 5113 2597 4934 2840 
Q 4756 3084 4391 3084 
Q 3944 3084 3684 2787 
Q 3425 2491 3425 1978 
L 3425 0 
L 2847 0 
L 2847 2094 
Q 2847 2600 2669 2842 
Q 2491 3084 2119 3084 
Q 1678 3084 1418 2786 
Q 1159 2488 1159 1978 
L 1159 0 
L 581 0 
L 581 3500 
L 1159 3500 
L 1159 2956 
Q 1356 3278 1631 3431 
Q 1906 3584 2284 3584 
Q 2666 3584 2933 3390 
Q 3200 3197 3328 2828 
z
" transform="scale(0.015625)"/>
       <path id="DejaVuSans-68" d="M 3513 2113 
L 3513 0 
L 2938 0 
L 2938 2094 
Q 2938 2591 2744 2837 
Q 2550 3084 2163 3084 
Q 1697 3084 1428 2787 
Q 1159 2491 1159 1978 
L 1159 0 
L 581 0 
L 581 4863 
L 1159 4863 
L 1159 2956 
Q 1366 3272 1645 3428 
Q 1925 3584 2291 3584 
Q 2894 3584 3203 3211 
Q 3513 2838 3513 2113 
z
" transform="scale(0.015625)"/>
       <path id="DejaVuSans-29" d="M 513 4856 
L 1013 4856 
Q 1481 4119 1714 3412 
Q 1947 2706 1947 2009 
Q 1947 1309 1714 600 
Q 1481 -109 1013 -844 
L 513 -844 
Q 928 -128 1133 580 
Q 1338 1288 1338 2009 
Q 1338 2731 1133 3434 
Q 928 4138 513 4856 
z
" transform="scale(0.015625)"/>
      </defs>
      <use xlink:href="#DejaVuSans-57"/>
      <use xlink:href="#DejaVuSans-69" x="96.626953"/>
      <use xlink:href="#DejaVuSans-6e" x="124.410156"/>
      <use xlink:href="#DejaVuSans-64" x="187.789062"/>
      <use xlink:href="#DejaVuSans-20" x="251.265625"/>
      <use xlink:href="#DejaVuSans-53" x="283.052734"/>
      <use xlink:href="#DejaVuSans-70" x="346.529297"/>
      <use xlink:href="#DejaVuSans-65" x="410.005859"/>
      <use xlink:href="#DejaVuSans-65" x="471.529297"/>
      <use xlink:href="#DejaVuSans-64" x="533.052734"/>
      <use xlink:href="#DejaVuSans-20" x="596.529297"/>
      <use xlink:href="#DejaVuSans-28" x="628.316406"/>
      <use xlink:href="#DejaVuSans-6d" x="667.330078"/>
      <use xlink:href="#DejaVuSans-70" x="764.742188"/>
      <use xlink:href="#DejaVuSans-68" x="828.21875"/>
      <use xlink:href="#DejaVuSans-29" x="891.597656"/>
     </g>
    </g>
   </g>
   <g id="line2d_13">
    <path d="M 187.799239 170.083188 
L 373.581818 179.488546 
L 69.218182 164.079949 
L 370.506873 179.332875 
" clip-path="url(#p2b75c78c2d)" style="fill: none; stroke: #ff0000; stroke-width: 1.5; stroke-linecap: square"/>
   </g>
   <g id="patch_3">
    <path d="M 54 252 
L 54 34.56 
" style="fill: none; stroke: #000000; stroke-width: 0.8; stroke-linejoin: miter; stroke-linecap: square"/>
   </g>
   <g id="patch_4">
    <path d="M 388.8 252 
L 388.8 34.56 
" style="fill: none; stroke: #000000; stroke-width: 0.8; stroke-linejoin: miter; stroke-linecap: square"/>
   </g>
   <g id="patch_5">
    <path d="M 54 252 
L 388.8 252 
" style="fill: none; stroke: #000000; stroke-width: 0.8; stroke-linejoin: miter; stroke-linecap: square"/>
   </g>
   <g id="patch_6">
    <path d="M 54 34.56 
L 388.8 34.56 
" style="fill: none; stroke: #000000; stroke-width: 0.8; stroke-linejoin: miter; stroke-linecap: square"/>
   </g>
   <g id="text_15">
    <!-- y=-0.03x + 8.12 -->
    <g style="fill: #ff0000" transform="translate(68.10002 81.923372)scale(0.15 -0.15)">
     <defs>
      <path id="DejaVuSans-79" d="M 2059 -325 
Q 1816 -950 1584 -1140 
Q 1353 -1331 966 -1331 
L 506 -1331 
L 506 -850 
L 844 -850 
Q 1081 -850 1212 -737 
Q 1344 -625 1503 -206 
L 1606 56 
L 191 3500 
L 800 3500 
L 1894 763 
L 2988 3500 
L 3597 3500 
L 2059 -325 
z
" transform="scale(0.015625)"/>
      <path id="DejaVuSans-3d" d="M 678 2906 
L 4684 2906 
L 4684 2381 
L 678 2381 
L 678 2906 
z
M 678 1631 
L 4684 1631 
L 4684 1100 
L 678 1100 
L 678 1631 
z
" transform="scale(0.015625)"/>
      <path id="DejaVuSans-2d" d="M 313 2009 
L 1997 2009 
L 1997 1497 
L 313 1497 
L 313 2009 
z
" transform="scale(0.015625)"/>
      <path id="DejaVuSans-2e" d="M 684 794 
L 1344 794 
L 1344 0 
L 684 0 
L 684 794 
z
" transform="scale(0.015625)"/>
      <path id="DejaVuSans-78" d="M 3513 3500 
L 2247 1797 
L 3578 0 
L 2900 0 
L 1881 1375 
L 863 0 
L 184 0 
L 1544 1831 
L 300 3500 
L 978 3500 
L 1906 2253 
L 2834 3500 
L 3513 3500 
z
" transform="scale(0.015625)"/>
      <path id="DejaVuSans-2b" d="M 2944 4013 
L 2944 2272 
L 4684 2272 
L 4684 1741 
L 2944 1741 
L 2944 0 
L 2419 0 
L 2419 1741 
L 678 1741 
L 678 2272 
L 2419 2272 
L 2419 4013 
L 2944 4013 
z
" transform="scale(0.015625)"/>
      <path id="DejaVuSans-38" d="M 2034 2216 
Q 1584 2216 1326 1975 
Q 1069 1734 1069 1313 
Q 1069 891 1326 650 
Q 1584 409 2034 409 
Q 2484 409 2743 651 
Q 3003 894 3003 1313 
Q 3003 1734 2745 1975 
Q 2488 2216 2034 2216 
z
M 1403 2484 
Q 997 2584 770 2862 
Q 544 3141 544 3541 
Q 544 4100 942 4425 
Q 1341 4750 2034 4750 
Q 2731 4750 3128 4425 
Q 3525 4100 3525 3541 
Q 3525 3141 3298 2862 
Q 3072 2584 2669 2484 
Q 3125 2378 3379 2068 
Q 3634 1759 3634 1313 
Q 3634 634 3220 271 
Q 2806 -91 2034 -91 
Q 1263 -91 848 271 
Q 434 634 434 1313 
Q 434 1759 690 2068 
Q 947 2378 1403 2484 
z
M 1172 3481 
Q 1172 3119 1398 2916 
Q 1625 2713 2034 2713 
Q 2441 2713 2670 2916 
Q 2900 3119 2900 3481 
Q 2900 3844 2670 4047 
Q 2441 4250 2034 4250 
Q 1625 4250 1398 4047 
Q 1172 3844 1172 3481 
z
" transform="scale(0.015625)"/>
     </defs>
     <use xlink:href="#DejaVuSans-79"/>
     <use xlink:href="#DejaVuSans-3d" x="59.179688"/>
     <use xlink:href="#DejaVuSans-2d" x="142.96875"/>
     <use xlink:href="#DejaVuSans-30" x="179.052734"/>
     <use xlink:href="#DejaVuSans-2e" x="242.675781"/>
     <use xlink:href="#DejaVuSans-30" x="274.462891"/>
     <use xlink:href="#DejaVuSans-33" x="338.085938"/>
     <use xlink:href="#DejaVuSans-78" x="401.708984"/>
     <use xlink:href="#DejaVuSans-20" x="460.888672"/>
     <use xlink:href="#DejaVuSans-2b" x="492.675781"/>
     <use xlink:href="#DejaVuSans-20" x="576.464844"/>
     <use xlink:href="#DejaVuSans-38" x="608.251953"/>
     <use xlink:href="#DejaVuSans-2e" x="671.875"/>
     <use xlink:href="#DejaVuSans-31" x="703.662109"/>
     <use xlink:href="#DejaVuSans-32" x="767.285156"/>
    </g>
   </g>
   <g id="text_16">
    <!-- Southern Hemisphere Wind Speed (mph) vs. Latitude (2/8/2022) -->
    <g transform="translate(27.658125 28.56)scale(0.12 -0.12)">
     <defs>
      <path id="DejaVuSans-6f" d="M 1959 3097 
Q 1497 3097 1228 2736 
Q 959 2375 959 1747 
Q 959 1119 1226 758 
Q 1494 397 1959 397 
Q 2419 397 2687 759 
Q 2956 1122 2956 1747 
Q 2956 2369 2687 2733 
Q 2419 3097 1959 3097 
z
M 1959 3584 
Q 2709 3584 3137 3096 
Q 3566 2609 3566 1747 
Q 3566 888 3137 398 
Q 2709 -91 1959 -91 
Q 1206 -91 779 398 
Q 353 888 353 1747 
Q 353 2609 779 3096 
Q 1206 3584 1959 3584 
z
" transform="scale(0.015625)"/>
      <path id="DejaVuSans-72" d="M 2631 2963 
Q 2534 3019 2420 3045 
Q 2306 3072 2169 3072 
Q 1681 3072 1420 2755 
Q 1159 2438 1159 1844 
L 1159 0 
L 581 0 
L 581 3500 
L 1159 3500 
L 1159 2956 
Q 1341 3275 1631 3429 
Q 1922 3584 2338 3584 
Q 2397 3584 2469 3576 
Q 2541 3569 2628 3553 
L 2631 2963 
z
" transform="scale(0.015625)"/>
      <path id="DejaVuSans-48" d="M 628 4666 
L 1259 4666 
L 1259 2753 
L 3553 2753 
L 3553 4666 
L 4184 4666 
L 4184 0 
L 3553 0 
L 3553 2222 
L 1259 2222 
L 1259 0 
L 628 0 
L 628 4666 
z
" transform="scale(0.015625)"/>
      <path id="DejaVuSans-73" d="M 2834 3397 
L 2834 2853 
Q 2591 2978 2328 3040 
Q 2066 3103 1784 3103 
Q 1356 3103 1142 2972 
Q 928 2841 928 2578 
Q 928 2378 1081 2264 
Q 1234 2150 1697 2047 
L 1894 2003 
Q 2506 1872 2764 1633 
Q 3022 1394 3022 966 
Q 3022 478 2636 193 
Q 2250 -91 1575 -91 
Q 1294 -91 989 -36 
Q 684 19 347 128 
L 347 722 
Q 666 556 975 473 
Q 1284 391 1588 391 
Q 1994 391 2212 530 
Q 2431 669 2431 922 
Q 2431 1156 2273 1281 
Q 2116 1406 1581 1522 
L 1381 1569 
Q 847 1681 609 1914 
Q 372 2147 372 2553 
Q 372 3047 722 3315 
Q 1072 3584 1716 3584 
Q 2034 3584 2315 3537 
Q 2597 3491 2834 3397 
z
" transform="scale(0.015625)"/>
      <path id="DejaVuSans-76" d="M 191 3500 
L 800 3500 
L 1894 563 
L 2988 3500 
L 3597 3500 
L 2284 0 
L 1503 0 
L 191 3500 
z
" transform="scale(0.015625)"/>
      <path id="DejaVuSans-2f" d="M 1625 4666 
L 2156 4666 
L 531 -594 
L 0 -594 
L 1625 4666 
z
" transform="scale(0.015625)"/>
     </defs>
     <use xlink:href="#DejaVuSans-53"/>
     <use xlink:href="#DejaVuSans-6f" x="63.476562"/>
     <use xlink:href="#DejaVuSans-75" x="124.658203"/>
     <use xlink:href="#DejaVuSans-74" x="188.037109"/>
     <use xlink:href="#DejaVuSans-68" x="227.246094"/>
     <use xlink:href="#DejaVuSans-65" x="290.625"/>
     <use xlink:href="#DejaVuSans-72" x="352.148438"/>
     <use xlink:href="#DejaVuSans-6e" x="391.511719"/>
     <use xlink:href="#DejaVuSans-20" x="454.890625"/>
     <use xlink:href="#DejaVuSans-48" x="486.677734"/>
     <use xlink:href="#DejaVuSans-65" x="561.873047"/>
     <use xlink:href="#DejaVuSans-6d" x="623.396484"/>
     <use xlink:href="#DejaVuSans-69" x="720.808594"/>
     <use xlink:href="#DejaVuSans-73" x="748.591797"/>
     <use xlink:href="#DejaVuSans-70" x="800.691406"/>
     <use xlink:href="#DejaVuSans-68" x="864.167969"/>
     <use xlink:href="#DejaVuSans-65" x="927.546875"/>
     <use xlink:href="#DejaVuSans-72" x="989.070312"/>
     <use xlink:href="#DejaVuSans-65" x="1027.933594"/>
     <use xlink:href="#DejaVuSans-20" x="1089.457031"/>
     <use xlink:href="#DejaVuSans-57" x="1121.244141"/>
     <use xlink:href="#DejaVuSans-69" x="1217.871094"/>
     <use xlink:href="#DejaVuSans-6e" x="1245.654297"/>
     <use xlink:href="#DejaVuSans-64" x="1309.033203"/>
     <use xlink:href="#DejaVuSans-20" x="1372.509766"/>
     <use xlink:href="#DejaVuSans-53" x="1404.296875"/>
     <use xlink:href="#DejaVuSans-70" x="1467.773438"/>
     <use xlink:href="#DejaVuSans-65" x="1531.25"/>
     <use xlink:href="#DejaVuSans-65" x="1592.773438"/>
     <use xlink:href="#DejaVuSans-64" x="1654.296875"/>
     <use xlink:href="#DejaVuSans-20" x="1717.773438"/>
     <use xlink:href="#DejaVuSans-28" x="1749.560547"/>
     <use xlink:href="#DejaVuSans-6d" x="1788.574219"/>
     <use xlink:href="#DejaVuSans-70" x="1885.986328"/>
     <use xlink:href="#DejaVuSans-68" x="1949.462891"/>
     <use xlink:href="#DejaVuSans-29" x="2012.841797"/>
     <use xlink:href="#DejaVuSans-20" x="2051.855469"/>
     <use xlink:href="#DejaVuSans-76" x="2083.642578"/>
     <use xlink:href="#DejaVuSans-73" x="2142.822266"/>
     <use xlink:href="#DejaVuSans-2e" x="2194.921875"/>
     <use xlink:href="#DejaVuSans-20" x="2226.708984"/>
     <use xlink:href="#DejaVuSans-4c" x="2258.496094"/>
     <use xlink:href="#DejaVuSans-61" x="2314.208984"/>
     <use xlink:href="#DejaVuSans-74" x="2375.488281"/>
     <use xlink:href="#DejaVuSans-69" x="2414.697266"/>
     <use xlink:href="#DejaVuSans-74" x="2442.480469"/>
     <use xlink:href="#DejaVuSans-75" x="2481.689453"/>
     <use xlink:href="#DejaVuSans-64" x="2545.068359"/>
     <use xlink:href="#DejaVuSans-65" x="2608.544922"/>
     <use xlink:href="#DejaVuSans-20" x="2670.068359"/>
     <use xlink:href="#DejaVuSans-28" x="2701.855469"/>
     <use xlink:href="#DejaVuSans-32" x="2740.869141"/>
     <use xlink:href="#DejaVuSans-2f" x="2804.492188"/>
     <use xlink:href="#DejaVuSans-38" x="2838.183594"/>
     <use xlink:href="#DejaVuSans-2f" x="2901.806641"/>
     <use xlink:href="#DejaVuSans-32" x="2935.498047"/>
     <use xlink:href="#DejaVuSans-30" x="2999.121094"/>
     <use xlink:href="#DejaVuSans-32" x="3062.744141"/>
     <use xlink:href="#DejaVuSans-32" x="3126.367188"/>
     <use xlink:href="#DejaVuSans-29" x="3189.990234"/>
    </g>
   </g>
  </g>
 </g>
 <defs>
  <clipPath id="p2b75c78c2d">
   <rect x="54" y="34.56" width="334.8" height="217.44"/>
  </clipPath>
 </defs>
</svg>
